<?xml version="1.0" encoding="iso-8859-1"?>
<!-- Uploaded to: SVG Repo, www.svgrepo.com, Generator: SVG Repo Mixer Tools -->
<svg fill="black" version="1.1" id="Layer_1" xmlns="http://www.w3.org/2000/svg" xmlns:xlink="http://www.w3.org/1999/xlink" 
	 viewBox="0 0 512 512" xml:space="preserve">
<g>
	<g>
		<path d="M308.878,475.189V281.637c0-1.027-0.189-2.047-0.558-3.006l-14.923-38.846v-55.924c0-3.348-1.966-6.229-4.803-7.572
			c-0.343-17.646-1.938-35.404-4.762-52.891c-3.217-19.852-8.07-39.683-14.421-58.944l-3.446-10.438
			c-1.424-4.3-5.426-7.189-9.959-7.189s-8.535,2.888-9.962,7.197L242.6,64.456c-12.02,36.439-18.465,74.027-19.194,111.84
			c-2.83,1.346-4.792,4.224-4.792,7.567v55.923l-14.934,38.844c-0.369,0.96-0.559,1.98-0.559,3.008v193.552
			c0,4.57,3.658,8.279,8.205,8.375v11.677c-4.546,0.096-8.205,3.805-8.205,8.375c0,4.63,3.754,8.384,8.384,8.384h88.99
			c4.63,0,8.384-3.754,8.384-8.384c0-4.57-3.658-8.279-8.205-8.375v-11.677C305.219,483.467,308.878,479.759,308.878,475.189z
			 M256.004,77.641c4.854,15.913,8.64,32.171,11.276,48.436c2.619,16.22,4.136,32.683,4.522,49.056h-31.604
			C240.967,142.237,246.273,109.515,256.004,77.641z M235.382,192.246h41.248v41.035h-41.248V192.246z M283.906,494.876h-55.813
			v-11.301h55.813V494.876z M292.111,466.806h-72.223V290.022h39.459c4.63,0,8.384-3.754,8.384-8.384
			c0-4.63-3.754-8.384-8.384-8.384H223.71l8.921-23.206h46.746l8.915,23.206h-5.491c-4.63,0-8.384,3.754-8.384,8.384
			c0,4.63,3.754,8.384,8.384,8.384h9.309V466.806z"/>
	</g>
</g>
<g>
	<g>
		<path d="M160.61,419.264c4.63,0,8.384-3.754,8.384-8.384V258.265c0-1.028-0.189-2.049-0.559-3.008l-16.566-43.093v-61.97
			c0-3.54-2.198-6.562-5.301-7.79c-0.371-19.53-2.131-39.173-5.258-58.505c-3.538-21.869-8.89-43.744-15.908-65.014l-3.801-11.528
			C120.147,2.956,116.058,0,111.425,0c-4.633,0-8.722,2.958-10.173,7.359l-3.801,11.524C84.176,59.115,77.07,100.63,76.283,142.403
			c-3.103,1.23-5.3,4.25-5.3,7.79v61.97l-16.566,43.093c-0.369,0.96-0.559,1.98-0.559,3.008v213.93c0,4.63,3.754,8.384,8.384,8.384
			h0.693v14.655h-0.693c-4.63,0-8.384,3.754-8.384,8.384c0,4.63,3.754,8.384,8.384,8.384h98.369c4.63,0,8.384-3.754,8.384-8.384
			c0-4.63-3.754-8.384-8.384-8.384h-0.693v-14.655h0.693c4.63,0,8.384-3.754,8.384-8.384V433.55c0-4.63-3.754-8.384-8.384-8.384
			c-4.63,0-8.384,3.754-8.384,8.384v30.261h-0.693H71.318h-0.693V266.648h81.601V410.88
			C152.227,415.51,155.98,419.264,160.61,419.264z M79.702,480.578h63.448v14.252H79.702V480.578z M111.426,30.196
			c5.791,18.516,10.271,37.451,13.332,56.38c2.953,18.252,4.641,36.795,5.035,55.234H93.059
			C93.855,104.121,100.022,66.639,111.426,30.196z M87.75,158.577h47.351v47.116H87.75V158.577z M74.447,249.881l10.541-27.42
			h52.875l10.542,27.42H74.447z"/>
	</g>
</g>
<g>
	<g>
		<path d="M449.758,480.578c4.63,0,8.384-3.754,8.384-8.384V321.187c0-31.743-25.825-57.568-57.568-57.568
			c-31.737,0-57.557,25.825-57.557,57.568V346c0,4.63,3.754,8.384,8.384,8.384c4.63,0,8.384-3.754,8.384-8.384v-16.429h81.59v134.24
			h-81.59v-93.793c0-4.63-3.754-8.384-8.384-8.384c-4.63,0-8.384,3.754-8.384,8.384v102.177c0,4.63,3.754,8.384,8.384,8.384h0.682
			v14.655h-0.682c-4.63,0-8.384,3.754-8.384,8.384c0,4.63,3.754,8.384,8.384,8.384h98.357c4.63,0,8.384-3.754,8.384-8.384
			c0-4.63-3.754-8.384-8.384-8.384h-0.682v-14.655H449.758z M360.654,312.805c3.877-18.49,20.301-32.417,39.92-32.417
			c19.625,0,36.053,13.928,39.931,32.417H360.654z M432.309,494.83H368.85v-14.252h63.459V494.83z"/>
	</g>
</g>
</svg>