<?xml version="1.0" standalone="no"?>
<!DOCTYPE svg PUBLIC "-//W3C//DTD SVG 20010904//EN"
 "http://www.w3.org/TR/2001/REC-SVG-20010904/DTD/svg10.dtd">
<svg version="1.0" xmlns="http://www.w3.org/2000/svg" viewBox="0 0 200.000000 200.000000"
 preserveAspectRatio="xMidYMid meet">

<g transform="translate(0.000000,200.000000) scale(0.100000,-0.100000)" fill="black" stroke="none">
<path d="M690 1892 c0 -23 -92 -717 -96 -721 -2 -2 -91 53 -198 123 -107 69
-196 126 -199 126 -2 0 42 -125 99 -277 57 -152 103 -278 101 -279 -1 -2 -87
22 -191 52 -103 31 -190 53 -193 50 -5 -4 280 -520 299 -541 12 -13 6 1 -86
219 -42 98 -74 181 -71 184 2 3 85 -11 182 -31 98 -19 179 -34 180 -33 1 1
-26 95 -61 209 -35 114 -61 207 -59 207 3 0 66 -34 140 -76 74 -41 138 -72
142 -69 3 4 22 104 42 223 l35 217 94 -193 c51 -106 97 -191 101 -190 5 2 60
65 123 140 97 118 115 134 119 115 3 -12 18 -103 33 -202 14 -99 28 -181 29
-183 2 -2 83 44 180 103 98 58 180 104 182 101 3 -2 -3 -100 -11 -217 -9 -117
-14 -214 -12 -216 2 -2 41 5 86 17 45 12 84 19 87 16 2 -2 -14 -89 -36 -192
-22 -103 -40 -189 -38 -190 1 -2 71 135 155 303 104 208 147 303 135 298 -58
-24 -277 -94 -281 -90 -3 2 15 128 40 280 24 151 43 275 41 275 -1 0 -102 -79
-225 -175 -122 -96 -224 -172 -226 -170 -3 2 -7 144 -11 315 l-6 311 -159
-211 c-87 -115 -162 -210 -165 -210 -3 0 -69 129 -145 288 -138 283 -156 318
-156 294z"/>
<path d="M823 719 c-205 -26 -338 -97 -313 -165 52 -136 615 -188 895 -83 222
83 117 208 -209 249 -92 12 -282 11 -373 -1z"/>
<path d="M500 377 c0 -130 1 -137 25 -165 63 -75 231 -115 485 -116 251 -1
427 38 488 108 27 31 27 32 24 164 l-3 133 -34 -30 c-73 -63 -238 -96 -480
-95 -246 1 -406 36 -475 105 l-30 31 0 -135z"/>
</g>
</svg>
