<?xml version="1.0" standalone="no"?>
<!DOCTYPE svg PUBLIC "-//W3C//DTD SVG 20010904//EN"
 "http://www.w3.org/TR/2001/REC-SVG-20010904/DTD/svg10.dtd">
<svg version="1.0" xmlns="http://www.w3.org/2000/svg" viewBox="0 0 512.000000 512.000000"
 preserveAspectRatio="xMidYMid meet">

<g transform="translate(0.000000,512.000000) scale(0.100000,-0.100000)"
fill="black" stroke="none">
<path d="M2548 5061 c-203 -65 -325 -259 -290 -461 11 -63 58 -180 72 -180 4
0 71 56 149 124 78 68 154 129 167 137 28 14 44 10 160 -41 34 -15 60 -21 77
-16 24 6 207 157 215 178 7 16 -61 109 -111 153 -125 109 -298 151 -439 106z"/>
<path d="M3000 4611 c-95 -81 -142 -88 -249 -40 -81 36 -62 44 -204 -81 l-85
-75 35 -37 c69 -71 203 -104 312 -78 134 32 248 176 239 304 l-3 46 -45 -39z"/>
<path d="M3182 4479 c-23 -11 -58 -39 -77 -61 -62 -73 -65 -94 -65 -467 l0
-336 -249 -218 c-137 -120 -261 -227 -276 -239 l-27 -21 -79 38 c-43 22 -80
37 -83 34 -5 -5 -56 -107 -56 -112 0 -1 36 -20 79 -41 75 -37 79 -41 85 -78
13 -78 118 -153 187 -133 32 8 44 20 -505 -464 l-459 -403 -39 11 c-49 15 -99
1 -128 -36 -16 -21 -20 -41 -20 -109 l0 -84 -215 0 -215 0 0 -75 0 -75 540 0
540 0 0 75 0 75 -205 0 -205 0 0 63 0 63 68 60 c37 33 406 358 820 723 413
364 752 665 752 668 0 4 -12 19 -27 35 l-27 28 21 22 c41 46 43 58 43 337 l0
271 40 0 40 0 0 -292 0 -292 115 -116 115 -117 0 -794 0 -795 26 -52 c27 -55
79 -103 138 -127 46 -20 163 -19 210 0 49 21 113 80 139 129 l22 41 3 995 c2
686 0 1006 -8 1032 -8 29 -89 115 -396 420 -212 211 -403 394 -424 406 -58 35
-143 40 -198 11z"/>
<path d="M2086 4416 l-26 -34 337 -253 336 -253 36 41 c20 22 67 76 106 118
l70 77 -35 30 -35 29 -75 -81 c-41 -44 -78 -80 -83 -80 -4 0 -139 99 -300 220
-162 121 -296 220 -299 220 -3 0 -17 -15 -32 -34z"/>
<path d="M3106 3014 l-175 -157 112 -123 c61 -68 114 -124 118 -124 6 0 238
203 338 295 11 11 -6 34 -100 139 -62 69 -114 126 -116 126 -1 0 -81 -70 -177
-156z"/>
<path d="M1520 2406 l0 -196 40 0 40 0 -2 193 -3 192 -37 3 -38 3 0 -195z"/>
<path d="M998 2315 c-10 -13 -18 -27 -18 -32 1 -9 299 -237 315 -240 13 -4 48
45 40 57 -8 12 -291 229 -307 235 -7 2 -21 -6 -30 -20z"/>
<path d="M350 725 l0 -665 2210 0 2210 0 0 665 0 665 -2210 0 -2210 0 0 -665z
m1290 280 l0 -65 225 0 225 0 0 -205 0 -205 -515 0 -515 0 0 205 0 205 225 0
225 0 0 65 0 65 65 0 65 0 0 -65z"/>
</g>
</svg>
