<?xml version="1.0" standalone="no"?>
<!DOCTYPE svg PUBLIC "-//W3C//DTD SVG 20010904//EN"
 "http://www.w3.org/TR/2001/REC-SVG-20010904/DTD/svg10.dtd">
<svg version="1.0" xmlns="http://www.w3.org/2000/svg" viewBox="0 0 512.000000 512.000000"
 preserveAspectRatio="xMidYMid meet">

<g transform="translate(0.000000,512.000000) scale(0.100000,-0.100000)"
fill="black" stroke="none">
<path d="M2062 4670 c-429 -44 -807 -290 -1023 -663 -23 -39 -43 -73 -44 -75
-1 -1 -62 -15 -136 -31 -74 -16 -161 -39 -194 -52 -75 -28 -155 -105 -173
-166 l-13 -43 -56 0 c-31 0 -74 -5 -97 -12 -55 -16 -138 -99 -154 -154 -17
-60 -17 -2728 0 -2788 16 -55 99 -138 154 -154 31 -9 270 -12 971 -12 855 0
932 -1 944 -17 8 -9 37 -27 64 -39 47 -23 61 -24 255 -24 194 0 208 1 255 24
28 12 56 30 64 39 12 16 89 17 945 17 1058 0 993 -5 1069 80 24 26 49 66 55
88 17 57 17 2727 0 2784 -6 22 -31 62 -55 88 -51 56 -108 80 -194 80 l-57 0
-17 49 c-17 52 -67 111 -115 136 -47 24 -262 83 -380 105 -223 40 -511 46
-707 14 l-40 -6 -37 66 c-123 220 -340 424 -571 536 -217 106 -482 154 -713
130z m388 -180 c376 -91 683 -351 821 -695 62 -155 82 -255 83 -415 1 -162
-12 -249 -56 -390 -59 -185 -136 -316 -266 -452 -159 -165 -356 -273 -592
-324 -107 -23 -370 -26 -475 -5 -470 93 -813 428 -910 891 -43 205 -40 371 10
560 117 433 493 772 943 845 119 20 329 13 442 -15z m1430 -690 c235 -18 551
-95 585 -143 13 -19 15 -158 15 -1200 l0 -1178 -26 -25 c-30 -31 -43 -30 -209
10 -170 40 -320 57 -520 57 -353 0 -671 -69 -974 -212 -57 -27 -106 -49 -107
-49 -2 0 -4 234 -4 521 l0 520 53 22 c28 11 81 36 116 55 52 27 66 31 76 20 7
-7 107 -139 222 -293 115 -154 231 -300 257 -323 93 -86 231 -126 354 -103
328 60 469 430 266 697 -16 20 -163 138 -329 262 -165 123 -304 228 -308 232
-5 4 12 50 36 101 141 298 172 606 91 917 -14 52 -23 96 -21 99 4 3 183 19
257 22 19 0 96 -4 170 -9z m-2960 -55 c0 -3 -9 -37 -19 -77 -60 -222 -53 -469
19 -703 102 -328 363 -635 680 -799 268 -138 522 -175 843 -120 l37 7 0 -497
c0 -273 -2 -496 -4 -496 -2 0 -50 22 -107 49 -463 220 -1031 274 -1536 146
-121 -31 -138 -31 -168 0 l-25 24 0 1178 c0 1047 2 1181 15 1201 11 15 47 31
113 51 124 38 152 45 152 36z m-440 -1368 c0 -1226 -4 -1160 67 -1231 20 -19
49 -41 64 -48 17 -8 29 -21 29 -32 0 -79 87 -190 166 -214 31 -9 212 -12 698
-12 l656 0 0 -80 0 -80 -895 0 -896 0 -24 25 -25 24 0 1351 0 1351 25 24 c20
21 34 25 80 25 l55 0 0 -1103z m4295 1078 l25 -24 0 -1351 0 -1351 -25 -24
-24 -25 -896 0 -895 0 0 80 0 80 656 0 c486 0 667 3 698 12 80 24 166 135 166
217 0 11 6 21 14 21 8 0 36 20 64 45 88 79 82 -11 82 1242 l0 1103 55 0 c46 0
60 -4 80 -25z m-1228 -1135 c179 -134 304 -236 322 -260 36 -49 55 -127 47
-186 -25 -188 -225 -294 -393 -208 -55 28 -69 43 -285 331 l-227 302 117 119
c64 66 119 121 121 121 2 1 136 -98 298 -219z m-1892 -1171 c130 -15 300 -54
433 -101 65 -22 119 -42 121 -44 2 -2 -303 -4 -678 -4 l-682 0 -25 25 c-52 52
-28 65 195 106 211 38 411 44 636 18z m2364 -6 c63 -8 155 -25 205 -37 102
-24 114 -38 72 -81 l-25 -25 -682 0 c-375 0 -680 2 -678 4 2 2 51 20 108 40
330 115 654 147 1000 99z m-1219 -398 c0 -88 -2 -98 -25 -120 -24 -25 -26 -25
-215 -25 -189 0 -191 0 -215 25 -23 22 -25 32 -25 120 l0 95 240 0 240 0 0
-95z"/>
<path d="M1970 4331 c-381 -84 -657 -350 -749 -722 -64 -262 -44 -476 69 -704
183 -372 592 -600 997 -556 245 26 448 124 618 295 153 155 243 328 280 541
19 110 19 183 0 308 -62 412 -315 706 -710 823 -78 23 -111 27 -255 30 -134 3
-181 0 -250 -15z m350 -141 c449 -71 770 -492 711 -934 -48 -359 -268 -622
-601 -716 -107 -31 -299 -38 -411 -16 -164 33 -314 113 -428 227 -280 279
-325 739 -107 1068 59 88 184 207 275 261 167 99 373 139 561 110z"/>
<path d="M2086 3925 c-115 -47 -179 -124 -199 -238 -9 -53 -8 -71 2 -91 19
-35 63 -52 100 -37 32 14 47 39 55 96 6 44 28 78 70 109 42 32 178 36 235 7
69 -36 104 -117 82 -191 -17 -57 -42 -82 -131 -130 -127 -69 -180 -147 -180
-268 0 -46 4 -58 29 -83 16 -16 39 -29 51 -29 12 0 35 13 51 29 24 25 29 38
29 79 0 64 25 95 113 140 91 47 141 93 174 160 24 49 28 69 28 142 0 76 -4 93
-33 152 -62 127 -155 178 -320 178 -79 0 -108 -5 -156 -25z"/>
<path d="M2153 2975 c-72 -50 -6 -169 76 -135 77 32 54 150 -29 150 -14 0 -35
-7 -47 -15z"/>
</g>
</svg>
