<?xml version="1.0" standalone="no"?>
<!DOCTYPE svg PUBLIC "-//W3C//DTD SVG 20010904//EN"
 "http://www.w3.org/TR/2001/REC-SVG-20010904/DTD/svg10.dtd">
<svg version="1.0" xmlns="http://www.w3.org/2000/svg" viewBox="0 0 1054.000000 1124.000000"
 preserveAspectRatio="xMidYMid meet">

<g fill="black" transform="translate(0.000000,1124.000000) scale(0.100000,-0.100000)" stroke="none">
<path d="M6315 10684 c-44 -7 -118 -32 -215 -71 -94 -39 -125 -40 -310 -12
-124 19 -2813 20 -2950 1 -105 -14 -173 -40 -189 -71 -32 -59 -39 -464 -11
-591 18 -78 55 -147 109 -203 81 -85 67 -82 404 -79 l297 2 -2 -447 -3 -447
-77 -22 c-43 -12 -85 -27 -93 -34 -52 -43 -65 -150 -65 -533 l0 -287 -22 4
c-112 23 -289 24 -341 2 -95 -39 -375 -282 -440 -381 -35 -54 -45 -147 -53
-495 -7 -317 4 -527 31 -583 19 -40 121 -150 200 -214 l50 -41 -18 -35 c-10
-18 -74 -94 -142 -167 l-123 -134 -8 -590 c-10 -758 -8 -1349 5 -1851 l10
-400 148 -143 148 -142 -65 -62 c-36 -34 -105 -100 -154 -147 l-89 -86 7 -400
c6 -419 14 -508 54 -599 34 -75 79 -130 191 -233 l105 -96 -105 6 c-57 4 -231
12 -387 19 l-282 12 -36 -35 c-59 -56 -94 -109 -94 -144 0 -34 34 -90 98 -164
l39 -44 364 13 c262 9 1203 14 3348 17 l2984 5 44 41 c95 88 96 137 4 260
l-36 48 -700 -5 c-385 -4 -862 -9 -1060 -13 l-359 -6 109 117 c171 181 202
245 225 466 17 170 28 499 20 594 -14 150 -31 173 -310 425 -33 30 -34 33 -16
44 220 143 241 166 277 302 17 68 22 126 29 390 5 171 14 334 20 362 8 35 10
132 7 290 -31 1784 -29 1721 -77 1819 -30 61 -63 95 -160 161 -25 17 -61 46
-80 63 l-34 33 24 19 c14 11 47 31 74 45 66 33 153 117 182 176 14 26 29 80
34 120 5 39 10 281 10 537 l0 466 -128 118 c-148 136 -265 220 -336 241 -37
11 -105 15 -274 15 l-224 0 4 343 c3 362 6 387 50 387 11 0 60 -25 108 -55
106 -67 157 -90 257 -116 144 -37 334 -35 619 7 48 7 57 -3 105 -123 94 -232
152 -440 238 -843 86 -407 130 -698 151 -1010 20 -296 9 -1396 -21 -2103 l-11
-268 27 -39 c35 -51 101 -84 150 -74 70 13 134 76 155 153 15 58 29 281 40
641 44 1502 8 2105 -171 2850 -86 360 -196 701 -284 888 -30 63 -55 119 -55
125 0 5 22 33 48 62 170 186 354 496 387 650 65 310 -88 712 -380 999 -160
157 -296 239 -461 277 -70 16 -133 21 -299 24 -115 2 -223 1 -240 -1z m423
-330 c97 -20 147 -42 231 -101 134 -95 269 -240 325 -350 64 -127 108 -370 87
-474 -29 -138 -217 -444 -263 -426 -7 2 -35 57 -61 121 -60 145 -534 1095
-580 1163 -32 47 -33 53 -19 67 22 22 176 22 280 0z m-1079 -136 c-93 -150
-133 -201 -171 -220 -58 -30 -258 -37 -1068 -38 -666 0 -1061 8 -1333 26 l-98
7 3 141 3 141 1100 7 c1006 7 1254 9 1523 16 l92 2 -51 -82z m543 -85 c24 -49
69 -134 98 -190 45 -85 54 -112 55 -154 0 -37 -5 -54 -16 -62 -27 -17 -500 76
-536 105 -16 13 9 64 86 173 67 96 134 166 187 194 67 35 75 31 126 -66z
m-2145 -840 c-3 -220 -10 -410 -17 -455 l-12 -78 -119 0 c-113 0 -119 1 -134
23 -22 34 -34 190 -34 432 0 252 11 396 33 430 16 25 19 25 153 25 l136 0 -6
-377z m848 355 c18 -79 26 -205 32 -526 l6 -362 -279 2 -279 3 -13 130 c-12
125 -14 736 -2 748 7 7 290 23 427 26 99 1 103 0 108 -21z m486 -27 c25 -27
42 -69 149 -371 77 -217 108 -276 195 -367 41 -43 75 -83 75 -90 0 -28 -44
-33 -278 -33 l-239 0 -12 153 c-37 482 -39 709 -4 735 26 19 83 6 114 -27z
m724 -226 c177 -21 308 -43 383 -67 60 -18 65 -22 106 -86 54 -83 146 -266
177 -351 l23 -64 -22 -18 c-25 -19 -97 -38 -183 -46 -70 -7 -142 13 -263 74
-120 60 -165 92 -264 187 -98 94 -137 145 -186 243 -74 146 -49 160 229 128z
m-1670 -975 c362 -10 558 -25 597 -44 24 -12 27 -12 32 7 5 20 7 20 42 -13 30
-29 35 -31 30 -13 -10 32 15 41 128 49 l97 7 -32 -66 c-18 -36 -36 -64 -40
-62 -3 3 -10 19 -15 37 -7 30 -9 27 -12 -30 -5 -99 8 -106 52 -23 64 121 112
160 167 131 21 -12 22 -15 16 -144 -7 -153 -21 -209 -55 -214 -20 -3 -22 0
-16 22 9 36 -20 46 -47 17 -30 -32 -99 -22 -99 14 0 20 -9 19 -33 -2 -17 -16
-59 -19 -451 -24 -237 -4 -607 -7 -822 -8 l-391 -1 -8 150 c-8 170 -2 192 58
209 42 12 403 13 802 1z m-815 -863 c13 -9 35 -17 48 -17 19 0 23 4 19 20 -8
30 12 24 24 -6 14 -39 29 -466 29 -856 l0 -338 -395 0 c-237 0 -413 4 -443 10
-36 8 -67 26 -115 66 l-67 56 0 432 0 432 83 81 c99 97 125 107 327 123 294
23 454 23 490 -3z m1385 -7 c84 -42 80 -11 83 -637 l3 -553 -511 0 -512 0 6
24 c17 69 26 307 26 729 l0 468 428 -3 427 -3 50 -25z m1241 0 c58 -30 113
-75 167 -139 19 -23 27 -44 27 -71 0 -27 6 -42 18 -49 16 -9 15 -11 -6 -27
-23 -16 -23 -17 -5 -36 26 -29 26 -177 0 -206 -12 -13 -15 -22 -8 -27 17 -10
13 -25 -7 -25 -18 0 -90 -66 -81 -75 3 -2 27 11 54 31 44 31 50 33 57 17 3
-10 7 -31 7 -48 l1 -30 -19 24 c-11 14 -21 20 -25 13 -8 -14 3 -42 27 -69 20
-23 20 -23 1 -23 -46 0 -59 -58 -23 -104 20 -26 20 -26 0 -26 -28 0 -35 -17
-11 -30 28 -15 25 -28 -7 -32 -37 -4 -37 -32 -1 -36 25 -3 27 -6 21 -34 -5
-26 -4 -30 10 -25 26 10 20 -4 -20 -45 -43 -44 -58 -47 -84 -15 l-18 22 -1
-37 c0 -31 -5 -40 -27 -52 -52 -26 -169 -36 -500 -43 l-333 -6 0 264 c0 145
-3 415 -7 600 l-6 337 74 6 c41 3 196 9 344 14 149 5 282 9 296 10 14 1 52
-12 85 -28z m-1616 -1575 c283 -7 362 -15 402 -45 l29 -21 -7 25 c-9 36 7 56
19 25 15 -36 22 -567 8 -603 -11 -28 -12 -28 -37 -11 -24 15 -23 12 10 -30 32
-43 45 -75 30 -75 -3 0 -15 5 -26 11 -21 11 -20 10 2 -26 18 -29 23 -52 24
-107 0 -62 -3 -73 -22 -89 l-23 -18 20 -13 c31 -19 26 -28 -16 -28 l-38 0 24
-19 23 -18 -68 -6 c-38 -4 -260 -7 -493 -7 l-423 0 6 24 c17 67 26 291 26 642
0 215 3 394 7 398 4 4 68 4 143 1 74 -2 245 -7 380 -10z m1555 -15 c137 -20
206 -55 257 -132 33 -49 36 -93 8 -110 -11 -7 -20 -16 -20 -20 0 -5 9 -8 20
-8 24 0 24 -4 6 -33 -8 -12 -16 -35 -18 -52 -2 -25 1 -31 20 -33 28 -4 24 -23
-6 -37 -28 -12 -28 -21 -1 -28 l22 -6 -22 -37 c-12 -20 -21 -37 -19 -38 43
-18 53 -42 17 -40 -15 0 -18 -3 -12 -15 8 -16 10 -458 2 -465 -2 -2 -222 -5
-489 -7 l-485 -4 -3 528 c-2 418 0 527 10 528 172 18 613 23 713 9z m-2458
-257 c-6 -246 -18 -365 -39 -390 -8 -10 -7 -17 5 -26 22 -16 37 -122 37 -262
0 -136 -6 -147 -52 -106 -38 33 -54 38 -60 19 -4 -10 -105 -14 -451 -16 l-447
-3 0 438 1 438 90 78 90 77 416 0 416 0 -6 -247z m1036 -1942 c38 -5 76 -16
86 -25 23 -21 31 -20 31 3 0 11 5 23 10 26 16 10 40 -15 40 -41 0 -13 5 -24
10 -24 6 0 10 8 10 18 0 10 6 27 14 38 14 18 16 17 56 -25 l41 -43 -6 35 c-8
43 11 60 22 20 9 -30 11 -808 3 -816 -15 -14 -281 -29 -608 -34 l-372 -6 2
434 3 434 185 5 c319 10 403 10 473 1z m1663 -95 c-9 -37 -16 -69 -16 -72 0
-2 11 -4 25 -4 14 0 25 -2 25 -5 0 -2 -11 -34 -25 -71 -14 -36 -25 -71 -25
-76 0 -6 14 -7 33 -3 l32 7 -33 -34 c-39 -42 -55 -105 -29 -120 13 -7 17 -24
17 -80 0 -71 0 -71 20 -53 11 10 23 16 26 13 22 -23 -142 -200 -222 -239 -49
-24 -50 -24 -394 -24 -190 0 -357 3 -372 8 -15 4 -29 15 -31 25 -3 9 -2 193 1
407 l7 390 300 9 c347 10 500 1 545 -33 27 -20 28 -20 33 -1 4 15 14 20 40 20
27 0 36 5 42 23 16 48 16 -19 1 -87z m-2692 -276 c4 -179 9 -357 12 -396 l5
-71 -123 -11 c-153 -15 -490 -16 -595 -1 -43 6 -100 21 -128 34 -68 31 -215
161 -215 189 0 47 41 591 45 594 2 3 223 5 490 6 315 1 485 4 486 11 0 6 4 1
9 -10 4 -12 11 -167 14 -345z m1146 -870 c35 -6 70 -16 76 -21 9 -7 16 -4 24
10 17 32 34 25 58 -21 20 -41 21 -41 15 -11 -3 18 -2 40 1 50 16 41 27 -22 33
-184 6 -175 -8 -429 -27 -477 -8 -21 -7 -32 2 -43 17 -21 18 -307 1 -324 -9
-9 -7 -20 10 -50 24 -42 20 -56 -13 -39 -21 11 -21 10 4 -33 35 -59 35 -104 0
-117 -30 -12 -241 -13 -662 -3 l-302 6 0 640 0 640 358 -6 c196 -4 386 -11
422 -17z m-1154 -14 c8 -35 0 -528 -10 -549 -5 -10 -15 -16 -22 -13 -9 3 -6
-6 6 -27 15 -25 20 -50 20 -112 0 -47 5 -86 11 -92 16 -16 23 -142 10 -176 -9
-22 -15 -27 -31 -22 -28 9 -25 -2 10 -32 26 -21 30 -32 30 -72 0 -26 7 -70 15
-97 8 -27 15 -50 15 -52 0 -2 -159 -2 -352 1 -234 2 -365 8 -390 16 -20 6 -71
34 -115 63 -197 128 -206 146 -211 388 -2 96 1 275 6 398 12 251 16 264 93
317 60 43 137 54 424 65 143 6 278 12 300 13 22 2 73 4 112 5 69 2 73 1 79
-22z m2425 4 c63 -6 131 -15 150 -21 38 -13 89 -56 89 -76 0 -7 9 -12 21 -10
60 6 88 -138 42 -215 -16 -28 -19 -38 -9 -38 16 0 26 -22 26 -56 0 -24 -14
-32 -25 -14 -3 5 -16 15 -27 21 -17 9 -15 3 10 -27 36 -43 39 -60 16 -92 -14
-21 -14 -23 11 -32 35 -13 27 -34 -16 -41 -44 -7 -55 -14 -62 -40 l-6 -21 23
21 c27 25 43 26 68 4 27 -24 24 -47 -6 -39 -12 3 -26 3 -29 0 -11 -11 6 -36
30 -45 41 -15 21 -34 -33 -32 l-49 3 33 -30 c18 -17 40 -30 49 -30 14 0 15 -9
9 -72 -3 -39 -15 -90 -25 -113 -34 -76 -161 -179 -266 -215 -85 -29 -183 -39
-460 -46 l-255 -7 0 524 c0 468 -8 685 -26 741 -5 18 7 18 298 13 167 -3 355
-10 419 -15z"/>
<path d="M4970 8372 c0 -12 59 -66 65 -60 7 7 -43 68 -56 68 -5 0 -9 -4 -9 -8z"/>
<path d="M5389 8309 c-25 -38 -51 -90 -59 -121 -6 -21 -4 -33 10 -50 l18 -22
0 40 c0 22 12 67 27 99 27 62 29 94 4 54z"/>
<path d="M5202 8295 c-18 -39 -14 -50 8 -30 20 18 28 55 12 55 -5 0 -14 -11
-20 -25z"/>
<path d="M5180 8165 c0 -14 -9 -34 -20 -45 -28 -28 -25 -33 13 -25 45 10 51
18 37 59 -13 42 -30 48 -30 11z"/>
<path d="M5412 8168 c18 -26 33 -27 33 0 0 10 -9 18 -24 20 -24 4 -24 3 -9
-20z"/>
<path d="M3662 6953 c21 -20 40 -34 43 -31 9 9 -45 68 -63 68 -12 0 -6 -11 20
-37z"/>
<path d="M3602 6688 c-17 -17 -15 -48 3 -48 20 0 29 24 18 44 -7 13 -12 13
-21 4z"/>
<path d="M4866 7521 c-5 -8 57 -71 70 -71 7 0 -32 54 -50 69 -8 7 -17 8 -20 2z"/>
<path d="M5000 7511 c11 -22 70 -67 70 -54 0 11 -63 73 -73 73 -4 0 -3 -9 3
-19z"/>
<path d="M4878 7393 c27 -38 27 -42 5 -59 -16 -12 -16 -13 9 -14 15 0 30 4 33
10 9 15 -17 61 -45 79 l-25 16 23 -32z"/>
<path d="M4866 6801 c-5 -8 57 -71 70 -71 7 0 -32 54 -50 69 -8 7 -17 8 -20 2z"/>
<path d="M4860 6627 c0 -19 27 -53 36 -45 9 10 -12 58 -26 58 -5 0 -10 -6 -10
-13z"/>
<path d="M4851 6499 c-15 -43 -14 -45 8 -25 24 22 34 56 16 56 -7 0 -18 -14
-24 -31z"/>
<path d="M6293 7459 c67 -66 97 -102 97 -118 0 -31 24 -22 28 11 4 33 -36 74
-143 147 l-80 55 98 -95z"/>
<path d="M6200 7466 c0 -11 64 -77 84 -88 20 -11 20 -10 6 8 -39 52 -90 97
-90 80z"/>
<path d="M6272 7138 c-11 -15 2 -58 17 -58 6 0 13 11 17 24 9 39 -12 60 -34
34z"/>
<path d="M6276 6808 c-9 -35 -7 -86 3 -93 16 -9 32 33 29 72 -3 42 -23 55 -32
21z"/>
<path d="M6180 6771 c0 -27 14 -33 45 -19 25 11 25 13 9 25 -27 19 -54 16 -54
-6z"/>
<path d="M6351 6682 c-20 -74 -24 -102 -13 -102 11 0 24 39 38 108 9 46 -13
41 -25 -6z"/>
<path d="M6233 6665 c0 -27 2 -38 4 -22 2 15 2 37 0 50 -2 12 -4 0 -4 -28z"/>
<path d="M6280 6618 c1 -33 3 -39 10 -26 11 18 10 68 -2 68 -4 0 -8 -19 -8
-42z"/>
<path d="M4850 5886 c0 -5 17 -40 37 -79 41 -77 61 -70 24 7 -20 40 -61 89
-61 72z"/>
<path d="M4950 5827 c0 -19 27 -53 36 -45 9 10 -12 58 -26 58 -5 0 -10 -6 -10
-13z"/>
<path d="M4860 5722 c0 -11 9 -27 20 -37 19 -17 20 -17 20 -1 0 23 -18 56 -30
56 -6 0 -10 -8 -10 -18z"/>
<path d="M4876 5421 c-20 -37 -20 -41 -2 -41 14 0 33 56 23 67 -3 3 -13 -9
-21 -26z"/>
<path d="M4875 5199 c-9 -27 3 -109 16 -109 12 0 12 117 0 125 -5 3 -13 -4
-16 -16z"/>
<path d="M6357 5184 c-30 -16 -29 -35 2 -27 26 7 60 43 40 43 -8 -1 -27 -8
-42 -16z"/>
<path d="M4917 3645 c-7 -16 28 -64 38 -53 6 6 -21 68 -29 68 -2 0 -6 -7 -9
-15z"/>
<path d="M4862 3593 c21 -20 40 -34 43 -31 9 9 -45 68 -63 68 -12 0 -6 -11 20
-37z"/>
<path d="M4860 3462 c0 -5 18 -23 40 -41 47 -37 51 -33 13 15 -26 32 -53 45
-53 26z"/>
<path d="M4860 3382 c0 -5 18 -23 40 -41 47 -37 51 -33 13 15 -26 32 -53 45
-53 26z"/>
<path d="M4840 3243 c1 -5 7 -19 15 -33 8 -14 14 -37 15 -51 0 -22 45 -79 62
-79 7 0 -49 139 -64 157 -11 14 -28 18 -28 6z"/>
<path d="M6149 3595 c26 -36 105 -115 114 -115 14 0 -50 75 -90 106 -26 19
-33 22 -24 9z"/>
<path d="M6277 3565 c-7 -16 28 -64 38 -53 6 6 -21 68 -29 68 -2 0 -6 -7 -9
-15z"/>
<path d="M6146 3521 c-5 -8 57 -71 70 -71 7 0 -32 54 -50 69 -8 7 -17 8 -20 2z"/>
<path d="M6340 3395 c0 -18 -5 -25 -20 -25 -24 0 -54 -44 -46 -67 6 -15 10
-13 29 11 l22 28 19 -21 c26 -29 36 -26 36 9 0 29 -24 90 -35 90 -3 0 -5 -11
-5 -25z"/>
<path d="M6233 3340 c0 -25 2 -35 4 -22 2 12 2 32 0 45 -2 12 -4 2 -4 -23z"/>
<path d="M6177 3263 c-11 -10 -8 -63 3 -63 6 0 10 16 10 35 0 36 -2 40 -13 28z"/>
<path d="M6360 3249 c0 -8 7 -25 16 -38 12 -16 19 -20 27 -12 8 8 4 19 -16 38
-19 19 -27 23 -27 12z"/>
<path d="M6337 3103 c13 -38 43 -58 43 -30 0 14 -31 47 -43 47 -3 0 -4 -8 0
-17z"/>
<path d="M3606 3275 c-19 -19 -13 -35 14 -35 26 0 35 19 18 37 -13 13 -17 12
-32 -2z"/>
<path d="M4921 2417 c38 -55 57 -73 66 -63 4 4 -17 30 -46 59 l-54 52 34 -48z"/>
<path d="M4916 2330 c15 -27 31 -50 37 -50 12 0 2 26 -26 67 -34 51 -41 39
-11 -17z"/>
<path d="M4890 1941 c0 -12 63 -62 69 -55 6 5 -50 64 -61 64 -4 0 -8 -4 -8 -9z"/>
<path d="M4970 1945 c0 -14 25 -55 36 -59 21 -8 17 28 -4 47 -18 16 -32 22
-32 12z"/>
<path d="M4860 1892 c0 -5 10 -17 23 -28 63 -56 75 -56 26 1 -30 34 -49 44
-49 27z"/>
<path d="M5010 1715 c0 -25 4 -35 13 -32 6 2 12 16 12 32 0 16 -6 30 -12 33
-9 2 -13 -8 -13 -33z"/>
<path d="M4901 1691 c-25 -59 -26 -84 -5 -105 28 -29 37 -19 30 33 -6 43 -4
49 13 54 22 5 19 38 -4 57 -9 8 -18 -2 -34 -39z"/>
<path d="M4840 1547 c0 -6 88 -67 96 -67 4 0 -7 16 -26 35 -19 19 -42 35 -52
35 -10 0 -18 -1 -18 -3z"/>
<path d="M4954 1391 c8 -12 97 -71 108 -71 15 0 -2 20 -44 51 -39 28 -76 39
-64 20z"/>
<path d="M6410 2380 c0 -6 10 -30 22 -53 15 -29 23 -37 26 -25 2 9 -4 30 -12
47 -17 32 -36 49 -36 31z"/>
<path d="M6275 2080 c-7 -12 55 -41 69 -33 11 7 -31 43 -50 43 -7 0 -16 -5
-19 -10z"/>
<path d="M6305 1908 c-49 -58 -70 -97 -56 -111 7 -7 14 -2 23 17 10 23 17 27
40 24 27 -4 28 -3 26 35 -1 27 4 44 15 52 21 15 22 25 3 25 -8 0 -31 -19 -51
-42z"/>
<path d="M6347 1703 c-4 -3 -7 -15 -7 -25 0 -28 34 -19 38 10 3 21 -16 31 -31
15z"/>
<path d="M6277 1661 c5 -19 73 -91 73 -77 0 12 -62 96 -71 96 -4 0 -5 -8 -2
-19z"/>
<path d="M6280 1489 c0 -24 35 -65 44 -51 3 6 -5 23 -19 39 -18 21 -24 24 -25
12z"/>
<path d="M1295 1123 c-80 -17 -133 -52 -187 -127 -44 -61 -39 -94 24 -151 66
-59 117 -85 167 -85 53 0 86 14 139 57 90 74 105 141 49 215 -48 63 -133 103
-192 91z"/>
<path d="M9215 1106 c-130 -42 -190 -125 -150 -209 19 -41 103 -123 139 -137
31 -12 66 -1 155 45 121 64 155 126 115 210 -25 53 -58 78 -116 86 -29 4 -64
9 -78 13 -14 3 -43 -1 -65 -8z"/>
</g>
</svg>
