<?xml version="1.0" standalone="no"?>
<!DOCTYPE svg PUBLIC "-//W3C//DTD SVG 20010904//EN"
 "http://www.w3.org/TR/2001/REC-SVG-20010904/DTD/svg10.dtd">
<svg version="1.0" xmlns="http://www.w3.org/2000/svg" viewBox="0 0 1042.000000 1036.000000"
 preserveAspectRatio="xMidYMid meet">

<g fill="black" transform="translate(0.000000,1036.000000) scale(0.100000,-0.100000)" stroke="none">
<path d="M1500 9444 c-164 -22 -410 -158 -575 -319 -99 -97 -188 -262 -215
-400 -7 -33 -15 -161 -19 -285 -7 -233 -13 -263 -52 -275 -11 -4 -25 -19 -30
-33 -24 -61 -30 -669 -32 -3097 -2 -2701 -3 -2670 43 -2702 33 -23 40 -53 55
-247 32 -386 57 -450 268 -675 l107 -114 -70 -70 c-91 -90 -100 -119 -72 -214
37 -119 119 -211 273 -303 264 -159 654 -204 934 -108 96 33 258 110 340 163
49 31 75 55 113 104 18 23 22 24 58 13 22 -6 84 -47 139 -92 109 -87 209 -144
326 -184 150 -51 347 -68 516 -45 200 27 519 177 638 298 53 56 93 56 141 4
73 -79 90 -93 196 -157 209 -124 356 -163 588 -153 196 9 370 51 520 127 97
49 148 86 221 162 93 96 108 95 227 -14 140 -129 294 -210 487 -254 62 -15
118 -19 250 -18 149 1 182 4 266 26 160 43 326 134 477 261 63 52 97 75 105
69 7 -5 48 -38 92 -74 176 -143 289 -203 490 -260 71 -20 102 -23 275 -23 182
0 202 2 292 27 139 39 261 92 343 149 143 98 255 228 255 294 0 39 -38 99
-123 195 l-66 75 138 135 c203 198 221 245 240 645 5 114 15 212 21 227 12 26
35 38 78 38 l22 0 0 2909 0 2908 -37 7 c-21 3 -53 6 -70 6 l-33 0 0 273 c0
296 -4 326 -59 443 -68 146 -232 333 -380 433 -132 90 -235 118 -471 127 -270
11 -473 -23 -645 -106 -114 -55 -193 -116 -276 -215 -40 -47 -76 -85 -80 -85
-4 0 -21 23 -39 50 -42 66 -153 167 -240 220 -82 50 -198 96 -289 116 -95 21
-336 29 -472 15 -274 -27 -498 -159 -676 -400 -1 -2 -51 43 -110 100 -251 242
-374 297 -683 306 -271 8 -472 -36 -640 -139 -97 -59 -213 -169 -235 -222 -9
-20 -21 -36 -28 -36 -14 0 -49 28 -185 148 -155 137 -260 194 -424 229 -129
28 -471 25 -588 -5 -175 -45 -310 -131 -451 -289 -35 -39 -68 -71 -72 -72 -5
-1 -42 35 -84 79 -121 128 -330 253 -481 286 -67 14 -458 27 -532 18z m7250
-359 c190 -31 285 -81 377 -197 72 -91 100 -145 112 -213 14 -82 25 -382 17
-440 -7 -43 -9 -46 -25 -31 -15 14 -18 13 -29 -4 -16 -27 -66 -26 -93 1 -14
14 -24 18 -28 10 -4 -6 -32 -15 -62 -21 -49 -10 -692 -29 -976 -30 l-113 0 0
213 c0 226 10 327 37 386 9 20 57 77 107 127 106 105 183 148 336 188 112 29
206 32 340 11z m-3345 -29 c80 -21 112 -42 209 -140 99 -100 157 -187 159
-238 2 -31 0 -33 -27 -30 l-28 3 22 -37 c23 -36 23 -36 2 -30 -32 10 -35 -9
-6 -43 16 -19 24 -38 20 -48 -4 -9 1 -27 10 -41 11 -17 18 -55 22 -112 5 -94
-4 -115 -37 -86 -34 31 -32 16 3 -26 20 -23 36 -49 36 -59 0 -15 -5 -16 -32
-9 -59 15 -506 21 -883 11 -203 -5 -372 -7 -375 -4 -10 10 -11 424 -1 480 16
88 76 198 146 269 88 88 199 136 355 153 108 12 340 5 405 -13z m1733 1 c100
-29 193 -98 279 -209 46 -61 82 -131 83 -161 0 -27 -16 -12 -55 49 -19 30 -38
54 -43 54 -4 0 -23 -15 -41 -34 -37 -38 -36 -43 25 -123 32 -42 43 -73 27 -73
-4 0 -34 26 -67 58 -54 51 -57 53 -31 17 51 -73 87 -105 116 -105 50 0 59 -21
59 -133 0 -71 5 -111 15 -131 19 -35 19 -33 -7 -39 -17 -5 -19 -9 -9 -21 10
-12 9 -15 -6 -19 -10 -3 -301 -8 -647 -12 l-629 -7 6 233 c7 251 14 304 51
383 50 108 218 234 354 266 136 32 417 35 520 7z m-5182 2 c82 -15 174 -72
265 -166 67 -68 129 -162 129 -193 0 -6 -10 -8 -25 -4 -15 4 -25 2 -25 -5 0
-12 36 -51 48 -51 4 0 7 -107 7 -238 l0 -237 -27 1 c-16 0 -310 1 -654 2
l-626 2 4 248 c5 273 15 326 77 424 61 95 232 198 371 221 55 9 400 6 456 -4z
m1764 -14 c73 -30 152 -89 221 -163 74 -80 110 -145 116 -211 l4 -46 -25 30
-26 30 0 -34 c0 -18 9 -49 21 -67 18 -29 22 -59 30 -207 5 -94 11 -184 15
-198 l6 -27 -49 10 c-29 6 -287 10 -665 9 l-618 0 0 33 c0 99 34 427 50 493
26 99 55 147 132 218 71 66 171 118 269 140 99 22 458 15 519 -10z m3693 -323
c24 -26 57 -103 56 -132 0 -24 -1 -24 -34 13 -40 46 -69 103 -61 123 7 19 20
18 39 -4z m-1175 -1935 c29 -30 34 -255 30 -1447 -2 -931 -6 -1190 -16 -1207
-18 -33 -72 -43 -229 -43 -202 0 -233 8 -309 84 -60 60 -93 108 -470 686 -242
371 -587 888 -617 925 l-25 30 -6 -75 c-3 -41 -11 -358 -16 -705 -11 -674 -22
-914 -43 -927 -6 -4 -106 -7 -222 -5 l-210 2 -3 1331 -2 1331 52 7 c84 10 329
7 371 -5 27 -7 49 -25 78 -62 102 -128 456 -654 769 -1142 179 -279 313 -483
352 -536 l23 -31 8 39 c4 21 10 421 14 890 l6 852 41 5 c76 10 341 24 375 20
19 -2 41 -10 49 -17z m-2684 -114 c-3 -60 -7 -163 -10 -229 l-6 -122 -46 -13
c-36 -11 -123 -14 -364 -12 l-318 1 0 -1104 0 -1104 -237 6 c-131 3 -243 7
-249 9 -8 2 -13 316 -18 1081 -4 593 -9 1080 -11 1082 -7 7 -354 30 -562 37
l-203 7 1 202 c1 110 4 212 8 226 6 23 13 26 71 31 36 3 489 6 1006 7 l942 2
-4 -107z m5235 -20 c6 -71 11 -169 11 -220 0 -85 -2 -93 -22 -105 -17 -10
-116 -14 -383 -18 l-360 -5 -5 -1065 c-6 -1115 -6 -1118 -48 -1135 -56 -23
-291 -14 -394 15 l-38 11 0 1089 0 1090 -370 0 -370 0 0 235 0 235 983 0 984
0 12 -127z m-1441 -3275 c6 -24 13 -62 17 -85 6 -40 5 -43 -22 -54 -51 -20
-949 -29 -2633 -27 l-1635 3 -3 103 -3 102 2134 0 2135 0 10 -42z m-5456
-1008 c70 -5 135 -13 144 -18 9 -5 22 -24 28 -43 16 -47 41 -53 32 -7 -8 42 9
61 51 56 21 -2 28 -8 27 -24 l0 -21 49 21 c47 20 49 20 62 3 8 -11 11 -34 8
-60 -7 -51 11 -41 31 18 13 36 14 32 20 -86 9 -157 -7 -417 -28 -457 -15 -29
-15 -29 10 -24 28 5 34 -21 8 -36 -12 -7 -15 -19 -12 -41 4 -30 3 -32 -20 -26
-22 5 -23 4 -17 -25 7 -32 -5 -40 -25 -15 -20 24 -30 17 -23 -17 5 -26 3 -30
-10 -25 -9 3 -31 -2 -49 -11 -29 -15 -75 -17 -408 -17 -373 0 -375 0 -435 24
-96 39 -246 206 -274 306 -7 24 -11 140 -11 294 l0 253 358 -7 c196 -4 414
-10 484 -15z m1068 0 c74 -5 325 -12 558 -16 l423 -7 25 -49 c13 -26 26 -48
27 -48 1 0 1 17 -1 38 -3 25 1 42 11 51 20 16 26 4 34 -61 l6 -53 12 40 12 40
8 -29 c8 -30 -1 -334 -11 -373 -8 -31 -20 -29 -31 4 -7 19 -11 23 -15 12 -8
-22 18 -79 37 -79 12 0 15 -11 14 -52 0 -29 -4 -62 -8 -73 -7 -18 -10 -15 -29
20 l-21 40 -1 -47 c0 -35 6 -53 25 -76 26 -31 32 -52 16 -52 -5 0 -35 21 -66
46 l-57 47 47 -64 c53 -72 67 -102 59 -124 -8 -21 -37 -19 -84 5 -53 27 -55
26 -26 -13 15 -19 26 -36 26 -39 0 -3 -19 1 -41 9 -47 16 -426 32 -756 33
l-202 0 -57 73 c-91 116 -94 127 -104 370 -5 117 -9 265 -10 331 0 118 0 118
23 112 12 -4 83 -11 157 -16z m2630 -15 c68 -4 130 -11 137 -17 7 -6 13 -28
13 -49 0 -21 7 -64 15 -96 19 -73 34 -433 17 -433 -5 0 -13 6 -15 13 -3 6 -6
-13 -6 -43 -2 -76 -16 -129 -40 -154 -16 -15 -21 -17 -21 -6 0 8 -21 -7 -45
-34 l-45 -49 -78 6 c-285 22 -512 37 -670 43 l-183 7 -54 76 c-30 42 -69 103
-87 136 l-33 60 -3 278 -3 278 488 -5 c268 -3 544 -8 613 -11z m1510 1 c197
-5 240 -13 240 -46 0 -26 17 -26 25 0 16 50 33 -7 36 -119 1 -36 3 -30 10 29
4 41 13 89 19 105 10 27 12 28 22 11 6 -11 9 -56 6 -110 -3 -67 -2 -82 5 -56
35 134 39 144 48 128 14 -25 29 -250 32 -461 2 -172 0 -189 -16 -198 -13 -7
-16 -17 -11 -32 6 -21 5 -21 -11 -6 -9 10 -20 38 -22 63 -3 25 -8 46 -11 46
-3 0 -17 -10 -30 -22 l-25 -23 8 40 c3 21 15 56 26 77 28 55 5 47 -27 -9 -38
-66 -64 -93 -90 -93 -28 0 -40 -16 -18 -24 9 -3 42 -6 74 -6 34 0 62 -5 66
-12 11 -18 -26 -38 -73 -38 -48 0 -97 -21 -106 -44 -5 -12 -1 -12 22 2 15 8
35 13 44 9 21 -8 50 -54 42 -67 -9 -14 -72 -13 -154 5 -107 22 -297 29 -478
16 -197 -14 -302 -31 -410 -68 -58 -19 -86 -24 -93 -17 -24 24 -38 886 -16
923 6 9 381 8 866 -3z m1555 4 c284 -9 375 -19 375 -40 0 -6 5 -10 10 -10 6 0
10 6 10 14 0 28 50 33 142 14 l58 -12 -6 -33 c-5 -26 -3 -33 10 -33 27 0 38
-48 44 -191 5 -142 -7 -249 -34 -301 -13 -25 -20 -28 -61 -28 -42 0 -45 -1
-28 -13 13 -11 16 -21 11 -42 -9 -34 -58 -85 -83 -85 -11 0 -29 -13 -41 -30
-13 -16 -41 -40 -65 -52 -39 -22 -52 -23 -212 -21 -183 3 -404 18 -500 34
-124 22 -259 114 -307 209 -39 78 -48 154 -48 408 l0 222 213 0 c116 -1 347
-5 512 -10z m-2865 -60 c0 -22 -4 -40 -10 -40 -11 0 -14 63 -3 73 11 12 13 8
13 -33z m1679 -746 c9 -9 10 -14 3 -10 -7 5 -16 -2 -22 -18 -5 -14 -14 -26
-20 -26 -11 0 -50 58 -50 74 0 14 72 -2 89 -20z m18 -46 c-3 -8 -6 -5 -6 6 -1
11 2 17 5 13 3 -3 4 -12 1 -19z m185 -60 c94 -49 172 -116 162 -141 -17 -45
-184 -49 -231 -6 -34 32 -53 79 -53 132 0 71 8 72 122 15z m-5302 -23 c31 -11
64 -13 130 -8 132 9 211 -26 190 -83 -12 -30 -58 -64 -89 -64 -66 0 -162 51
-256 134 -44 39 -39 43 25 21z m1840 -5 c97 -27 168 -105 125 -137 -64 -46
-273 48 -249 112 13 32 63 42 124 25z m-625 -230 c133 -16 243 -46 305 -84 96
-60 76 -90 -95 -145 -245 -79 -481 -79 -685 -2 -72 28 -98 49 -109 89 -13 44
7 61 107 95 153 52 302 67 477 47z m3475 -5 c150 -22 279 -71 294 -111 10 -25
7 -32 -16 -54 -90 -83 -389 -140 -590 -111 -95 13 -253 63 -299 94 -28 18 -34
29 -34 57 0 28 6 39 34 57 106 71 387 103 611 68z m-1663 -20 c115 -16 165
-34 206 -72 48 -47 33 -74 -66 -117 -107 -48 -203 -68 -347 -73 -121 -4 -145
-2 -232 21 -166 42 -265 98 -256 142 7 39 132 89 256 104 112 13 331 10 439
-5z m-3352 -11 c129 -23 195 -65 195 -124 0 -29 -54 -52 -216 -92 -226 -56
-440 -42 -602 40 -32 16 -64 41 -72 55 -13 23 -13 28 5 47 29 32 78 50 190 70
132 24 377 26 500 4z m6778 -14 c161 -9 198 -21 227 -73 23 -40 5 -58 -87 -89
-133 -45 -250 -62 -423 -62 -127 1 -170 5 -239 23 -248 65 -285 172 -69 200
88 12 413 12 591 1z"/>
<path d="M8996 8709 c-27 -21 -27 -21 -6 -36 47 -33 81 -144 60 -198 l-11 -30
-29 35 c-34 40 -39 30 -10 -18 29 -46 60 -41 75 12 7 22 17 42 23 44 20 6 14
121 -8 170 -22 49 -50 55 -94 21z m91 -73 c25 -49 -9 -26 -36 25 l-24 44 22
-20 c13 -11 30 -33 38 -49z"/>
<path d="M9196 8651 c4 -30 12 -73 19 -95 l13 -41 1 55 c0 36 -6 69 -19 95
l-20 40 6 -54z"/>
<path d="M8967 8633 c-4 -3 -7 -21 -7 -39 0 -35 28 -64 62 -64 29 0 28 15 -2
64 -29 45 -40 53 -53 39z"/>
<path d="M9102 8463 c-6 -12 -12 -32 -12 -44 0 -21 1 -22 16 -7 9 9 14 27 12
44 -3 28 -3 29 -16 7z"/>
<path d="M8980 8380 c0 -26 23 -72 44 -89 22 -19 20 -1 -4 29 -26 34 -25 41 6
30 54 -21 62 -1 12 30 -42 25 -58 25 -58 0z"/>
<path d="M5670 8805 c0 -13 49 -113 59 -119 22 -14 11 31 -20 77 -28 43 -39
55 -39 42z"/>
<path d="M5556 8671 c-7 -11 52 -36 62 -27 8 9 -26 36 -44 36 -7 0 -15 -4 -18
-9z"/>
<path d="M5632 8508 c-18 -18 -15 -32 18 -73 35 -44 37 -56 10 -73 -23 -14
-26 -32 -6 -32 15 0 26 9 59 50 10 12 25 19 33 16 8 -3 14 1 14 8 0 16 -21 26
-56 26 -28 0 -59 41 -51 70 6 23 -3 26 -21 8z"/>
<path d="M7260 8614 c0 -17 42 -72 70 -93 35 -26 32 -18 -20 52 -32 42 -50 57
-50 41z"/>
<path d="M7350 8455 c0 -5 12 -29 27 -54 28 -48 45 -43 19 7 -15 29 -46 61
-46 47z"/>
<path d="M7304 8365 c-8 -31 3 -75 17 -75 7 0 9 11 5 31 -7 35 -6 35 67 -28
41 -37 63 -44 48 -15 -13 24 -107 112 -120 112 -6 0 -13 -11 -17 -25z"/>
<path d="M2258 8805 c-9 -10 12 -53 28 -59 8 -3 14 1 14 8 0 19 -34 59 -42 51z"/>
<path d="M2222 8693 c21 -20 39 -35 42 -32 9 9 -45 69 -62 69 -12 0 -6 -11 20
-37z"/>
<path d="M2226 8463 c-13 -13 -5 -33 25 -68 44 -49 54 -44 24 14 -26 52 -38
65 -49 54z"/>
<path d="M3770 8698 c0 -9 16 -28 35 -42 19 -15 35 -23 35 -18 0 4 -16 23 -35
42 -24 23 -35 29 -35 18z"/>
<path d="M3956 8586 c7 -18 74 -71 74 -58 0 9 -63 72 -73 72 -3 0 -4 -7 -1
-14z"/>
<path d="M3880 8482 c0 -10 83 -92 93 -92 5 0 -4 15 -18 34 -27 36 -75 73 -75
58z"/>
<path d="M3932 8343 c21 -20 39 -35 42 -32 9 9 -45 69 -62 69 -12 0 -6 -11 20
-37z"/>
<path d="M2232 2303 c-7 -3 -19 -18 -27 -34 -26 -50 20 -33 49 18 8 14 -4 22
-22 16z"/>
<path d="M2131 2194 c29 -31 66 -53 54 -32 -16 28 -49 58 -63 58 -11 0 -9 -7
9 -26z"/>
<path d="M2307 2183 c-11 -10 -8 -53 3 -53 6 0 10 14 10 30 0 31 -2 35 -13 23z"/>
<path d="M2250 2123 c0 -18 58 -83 74 -83 8 0 -53 88 -66 96 -5 3 -8 -3 -8
-13z"/>
<path d="M2250 1961 c0 -19 26 -48 36 -39 7 7 -17 58 -28 58 -4 0 -8 -8 -8
-19z"/>
<path d="M3942 2160 c-27 -29 -28 -29 -41 -9 -9 15 -16 18 -23 11 -8 -8 -3
-25 18 -58 33 -54 60 -72 44 -29 -14 37 -13 38 15 31 20 -5 27 -1 40 24 19 36
21 36 46 8 15 -19 18 -20 19 -6 0 21 -46 58 -72 58 -10 0 -31 -13 -46 -30z"/>
<path d="M3918 1989 c28 -26 50 -39 64 -37 34 5 34 28 1 28 -16 0 -44 11 -63
25 -50 37 -51 30 -2 -16z"/>
<path d="M3949 1572 c19 -37 51 -73 51 -57 0 16 -51 95 -61 95 -5 0 -1 -17 10
-38z"/>
<path d="M5557 2304 c-4 -4 4 -20 17 -35 14 -16 22 -36 19 -47 -2 -10 3 -24
11 -31 10 -8 16 -29 16 -53 0 -40 11 -43 29 -9 7 13 5 28 -8 52 -14 26 -16 38
-7 52 9 15 6 23 -22 48 -33 30 -44 34 -55 23z"/>
<path d="M5670 2291 c0 -18 19 -51 30 -51 17 0 11 26 -10 45 -13 11 -20 14
-20 6z"/>
<path d="M5623 1961 c-14 -23 -6 -61 13 -61 10 0 14 13 14 40 0 44 -9 50 -27
21z"/>
<path d="M5628 1833 c-26 -30 -69 -103 -60 -103 4 0 17 7 28 15 42 32 47 3 8
-44 -26 -31 -21 -42 8 -18 20 15 68 86 68 100 0 5 -9 7 -20 4 -19 -5 -20 -2
-14 29 7 38 4 42 -18 17z"/>
<path d="M7270 2221 c0 -55 2 -62 15 -51 8 7 28 10 45 8 31 -5 42 8 15 18 -8
4 -15 15 -15 25 0 10 -6 19 -14 19 -8 0 -22 10 -30 22 -15 21 -16 19 -16 -41z"/>
<path d="M7427 2084 c-10 -10 -9 -52 2 -58 12 -8 22 34 12 51 -4 7 -10 10 -14
7z"/>
<path d="M7476 2073 c-7 -23 9 -73 24 -73 15 0 12 53 -4 75 -13 18 -14 18 -20
-2z"/>
<path d="M7427 1954 c-14 -15 -6 -61 13 -79 20 -18 20 -17 20 11 -1 33 -23 78
-33 68z"/>
<path d="M7512 1845 c0 -66 2 -72 8 -37 3 24 3 60 -1 80 -5 28 -7 16 -7 -43z"/>
<path d="M7376 1813 c-29 -42 -37 -95 -12 -73 17 14 51 98 43 106 -3 3 -17
-12 -31 -33z"/>
<path d="M9091 2311 c-15 -27 -14 -46 3 -60 11 -9 15 -8 20 5 17 45 -3 93 -23
55z"/>
<path d="M9160 2286 c0 -25 12 -46 26 -46 10 0 11 6 3 30 -11 31 -29 41 -29
16z"/>
</g>
</svg>
