<?xml version="1.0" standalone="no"?>
<!DOCTYPE svg PUBLIC "-//W3C//DTD SVG 20010904//EN"
 "http://www.w3.org/TR/2001/REC-SVG-20010904/DTD/svg10.dtd">
<svg version="1.0" xmlns="http://www.w3.org/2000/svg" viewBox="0 0 994.000000 1084.000000"
 preserveAspectRatio="xMidYMid meet">

<g fill="black" transform="translate(0.000000,1084.000000) scale(0.100000,-0.100000)" stroke="none">
<path d="M5685 10325 c-489 -76 -889 -371 -1148 -845 -51 -92 -95 -232 -112
-352 -8 -57 -15 -109 -15 -115 0 -10 -31 -13 -122 -13 -157 0 -288 -14 -327
-34 -59 -31 -65 -58 -71 -296 l-5 -215 -362 -7 c-200 -3 -386 -11 -416 -18
-58 -12 -98 -43 -117 -94 -30 -80 -32 -415 -26 -3474 l7 -3073 -98 6 c-54 3
-276 10 -493 16 l-395 10 -33 -38 c-99 -112 -113 -219 -37 -269 18 -12 69 -18
197 -25 100 -6 1569 -12 3468 -16 l3296 -5 25 38 c67 102 66 208 -2 248 -87
51 -476 66 -1806 66 l-893 0 0 3239 0 3240 -42 48 c-22 26 -49 54 -59 60 -37
27 -131 35 -476 41 l-358 7 4 185 c4 207 -3 246 -52 306 -49 59 -72 64 -288
64 l-192 0 7 80 c16 189 117 389 283 557 145 146 390 274 635 330 97 22 323
21 433 -2 383 -80 701 -302 937 -654 127 -190 234 -451 257 -626 17 -124 29
-675 37 -1697 l7 -866 -230 -4 c-168 -2 -234 -6 -245 -16 -13 -11 -17 -68 -22
-385 -8 -415 9 -1658 23 -1725 5 -25 17 -50 29 -58 27 -19 53 -91 97 -270 84
-342 273 -1049 322 -1199 50 -155 128 -265 189 -265 34 0 78 24 97 54 68 104
365 1176 417 1506 19 124 26 138 71 150 72 20 69 -7 69 692 0 606 -14 1416
-26 1470 -3 14 -13 30 -22 34 -9 4 -108 10 -219 12 l-203 4 -1 546 c-1 946
-16 1883 -33 2012 -30 240 -86 401 -241 689 -240 447 -598 744 -1075 892 -197
62 -459 84 -645 54z m-867 -1656 l112 -12 0 -103 0 -104 -329 0 -329 0 -11 63
c-17 99 -15 164 7 171 29 9 431 -2 550 -15z m983 -684 c4 -61 7 -278 8 -484
l1 -374 -112 8 c-62 4 -114 8 -114 8 -1 1 -4 212 -7 469 l-6 466 87 7 c48 3
92 8 97 10 35 13 40 0 46 -110z m-699 91 c23 -12 29 -12 39 0 19 23 29 6 29
-49 0 -76 -8 -99 -32 -91 -18 5 -19 4 -7 -18 18 -32 25 -300 9 -394 -10 -64
-9 -77 4 -96 31 -43 11 -96 -30 -82 -13 4 -8 -4 14 -25 36 -36 40 -52 16 -72
-8 -7 -22 -25 -30 -40 -10 -20 -27 -32 -55 -39 -65 -18 -486 -29 -1044 -29
-499 0 -665 6 -681 22 -11 11 -21 214 -29 589 l-7 328 268 3 c148 1 548 3 889
5 517 1 624 0 647 -12z m62 -901 c-6 -15 -8 -15 -16 -2 -4 8 -5 23 -2 32 6 15
8 15 16 2 4 -8 5 -23 2 -32z m658 -1221 c6 -169 8 -580 4 -1109 -7 -835 -15
-1167 -28 -1180 -4 -4 -55 -4 -114 0 l-107 8 6 401 c4 235 10 419 17 445 8 33
8 52 -1 75 -8 22 -13 263 -16 818 l-6 787 39 6 c22 4 62 11 89 16 86 15 90 16
98 9 5 -4 13 -128 19 -276z m-643 107 c13 -132 12 -155 -5 -275 -25 -176 -25
-352 -1 -389 22 -33 22 -34 -5 -33 -20 1 -23 -4 -22 -37 1 -22 9 -47 21 -60
24 -26 36 -57 23 -57 -6 0 -15 9 -22 20 -16 26 -28 26 -28 -1 0 -28 18 -59 34
-59 24 0 28 -31 6 -37 -11 -3 -21 -6 -22 -7 -4 -3 -18 -607 -16 -676 8 -211 2
-526 -10 -547 -10 -19 -9 -24 16 -43 l27 -21 -26 -20 -26 -21 23 -23 c15 -15
24 -36 24 -55 0 -39 -15 -38 -30 3 -10 24 -14 28 -17 14 -3 -10 -17 -23 -31
-29 -67 -26 -1656 -37 -1736 -11 -20 6 -33 19 -39 39 -5 16 -10 557 -10 1239
l-2 1210 595 7 c327 4 651 9 720 11 69 1 220 3 335 2 l210 0 14 -144z m2606
-348 c15 -35 18 -242 6 -408 -11 -144 -10 -215 4 -464 9 -161 17 -366 18 -456
2 -185 -2 -200 -56 -184 -18 5 -115 14 -217 20 -102 5 -227 12 -277 15 l-93 6
0 481 c-1 575 -12 893 -34 956 -9 24 -16 45 -16 47 0 2 148 4 329 4 304 0 329
-1 336 -17z m-186 -1872 c11 -7 8 -63 -19 -332 -40 -412 -46 -452 -77 -480
-14 -14 -27 -19 -32 -13 -4 5 -16 65 -25 134 -24 180 -96 608 -106 635 -9 25
3 48 30 58 25 9 214 7 229 -2z m-2416 -1108 c15 -35 15 -732 -1 -778 -6 -17
-11 -22 -11 -12 -1 20 -12 22 -29 5 -19 -19 -1812 -24 -1824 -6 -4 7 -8 185
-8 395 l0 381 38 6 c20 3 307 10 637 16 330 6 647 12 705 13 58 2 189 4 293 5
l187 2 13 -27z m632 -5 c4 -4 10 -187 13 -408 l5 -400 -116 0 -116 0 -3 218
c-4 264 5 572 16 591 6 10 32 12 101 9 52 -1 97 -6 100 -10z"/>
<path d="M5040 7938 c0 -17 60 -71 69 -62 3 3 -12 21 -32 42 -26 26 -37 32
-37 20z"/>
<path d="M3554 7699 c-81 -19 -114 -97 -81 -193 44 -130 161 -188 237 -118 47
42 61 167 28 255 -19 50 -103 75 -184 56z"/>
<path d="M4778 7644 c-5 -4 -8 -21 -8 -38 0 -21 3 -27 11 -19 6 6 9 23 7 38
-2 15 -6 23 -10 19z"/>
<path d="M4720 7584 c0 -27 4 -43 10 -39 6 3 10 24 10 46 0 21 -4 39 -10 39
-5 0 -10 -21 -10 -46z"/>
<path d="M5144 6026 c-3 -15 -2 -32 3 -37 7 -7 13 -1 17 17 4 15 3 31 -3 37
-7 7 -12 1 -17 -17z"/>
<path d="M5145 5913 c-8 -37 -16 -40 -50 -17 -20 13 -28 14 -40 4 -20 -17 -19
-33 3 -26 9 3 31 -3 47 -14 17 -11 36 -20 42 -20 18 0 25 39 14 75 l-9 30 -7
-32z"/>
<path d="M3560 5767 c-40 -20 -62 -101 -64 -232 -1 -131 19 -199 63 -217 35
-13 217 -23 223 -12 2 5 1 110 -4 233 -6 163 -11 227 -20 233 -20 12 -170 9
-198 -5z"/>
<path d="M3665 4975 c-5 -2 -22 -6 -37 -9 -36 -8 -58 -32 -58 -64 0 -15 -13
-55 -30 -88 -16 -33 -34 -83 -40 -110 -16 -70 -17 -204 -1 -232 18 -34 70 -52
146 -52 79 0 122 19 130 58 4 15 8 36 10 47 10 47 -16 172 -51 242 -34 68 -35
73 -20 95 16 23 21 73 10 102 -6 15 -33 20 -59 11z"/>
<path d="M7716 5271 c-3 -4 1 -17 9 -27 13 -16 16 -17 24 -4 7 9 6 19 -1 27
-12 15 -25 17 -32 4z"/>
<path d="M7631 4336 c-14 -17 10 -39 35 -34 27 5 27 23 0 36 -19 8 -27 8 -35
-2z"/>
<path d="M5144 2076 c-3 -15 -2 -32 3 -37 7 -7 13 -1 17 17 4 15 3 31 -3 37
-7 7 -12 1 -17 -17z"/>
<path d="M2760 10039 c-32 -13 -87 -66 -106 -101 -20 -38 -18 -67 11 -124 28
-56 141 -194 159 -193 6 0 32 26 59 57 79 95 96 197 47 291 -37 73 -98 98
-170 70z"/>
<path d="M2257 9520 c-56 -44 -72 -110 -37 -148 44 -47 79 -57 192 -57 93 0
110 3 135 21 43 32 43 76 1 118 -40 40 -133 77 -208 83 -46 4 -60 1 -83 -17z"/>
<path d="M3190 9514 c-52 -13 -171 -32 -265 -42 l-170 -17 -5 -151 c-6 -168
-1 -154 -101 -270 -106 -122 -103 -220 9 -275 87 -43 200 -7 260 81 35 52 36
73 17 212 -17 129 -15 220 7 263 18 35 61 75 80 75 10 0 46 -12 80 -26 164
-69 333 -63 383 13 43 64 40 125 -6 148 -43 23 -176 17 -289 -11z"/>
<path d="M890 1768 c-61 -23 -125 -155 -104 -216 19 -54 157 -88 316 -80 138
8 188 56 188 179 0 102 -34 121 -230 126 -91 2 -146 -1 -170 -9z"/>
<path d="M4089 1121 c-63 -40 -145 -127 -174 -185 -45 -89 -30 -160 51 -246
121 -130 231 -137 353 -25 68 64 101 125 101 191 0 119 -128 263 -256 287 -24
5 -42 -1 -75 -22z m136 -155 c63 -65 76 -152 32 -206 -102 -126 -238 -41 -228
142 1 30 44 86 75 98 48 20 78 11 121 -34z"/>
<path d="M5492 1141 c-18 -11 -85 -170 -137 -325 -53 -159 -59 -193 -46 -229
18 -46 51 -33 82 32 14 29 32 57 40 62 23 14 118 10 149 -6 17 -9 39 -32 49
-53 25 -49 44 -64 73 -60 18 2 24 10 26 34 5 56 -150 496 -189 535 -21 21 -28
23 -47 10z m44 -288 c4 -19 2 -45 -5 -59 -9 -21 -14 -23 -31 -14 -22 12 -25
37 -9 93 8 31 13 36 24 27 8 -7 17 -28 21 -47z"/>
<path d="M3402 1130 c-64 -10 -102 -33 -102 -63 0 -44 14 -52 104 -55 l85 -4
3 -199 c2 -162 6 -201 18 -214 14 -13 19 -13 35 -1 17 12 20 32 26 162 9 200
31 254 103 254 13 0 32 7 40 16 19 18 21 85 4 102 -14 14 -227 15 -316 2z"/>
<path d="M2856 1123 l-88 -4 4 -237 c3 -133 10 -248 16 -263 6 -16 24 -31 44
-38 40 -14 244 -27 282 -17 24 6 26 11 26 54 0 26 -5 53 -12 60 -7 7 -46 12
-98 13 -120 1 -136 7 -132 49 5 63 22 76 105 83 84 7 103 13 111 32 11 29 -18
45 -89 51 -38 3 -80 7 -92 10 -29 5 -39 39 -20 68 13 19 27 24 82 29 93 7 146
50 117 95 -10 14 -122 21 -256 15z"/>
<path d="M5850 1120 c-17 -11 -19 -95 -2 -112 7 -7 36 -7 90 -1 l80 9 4 -196
c4 -206 11 -243 47 -233 28 7 31 28 31 237 l0 189 58 -6 c73 -8 102 -1 102 25
0 33 -18 56 -52 67 -82 26 -327 41 -358 21z"/>
<path d="M2112 853 l3 -268 98 1 c139 2 215 27 286 94 56 54 80 175 52 265
-42 130 -132 175 -348 175 l-93 0 2 -267z m253 131 c38 -25 59 -71 59 -134 0
-70 -25 -114 -80 -141 -84 -40 -119 10 -112 161 5 111 23 145 73 137 18 -3 45
-13 60 -23z"/>
<path d="M4637 1113 c-18 -18 1 -420 24 -505 11 -42 19 -50 39 -38 9 6 16 42
21 119 4 62 13 134 19 162 l12 50 45 -78 c76 -134 142 -208 206 -232 50 -19
52 -10 55 241 4 261 -1 288 -47 288 -15 0 -34 -6 -40 -14 -7 -8 -15 -54 -18
-103 -3 -48 -10 -96 -15 -106 -9 -17 -10 -17 -36 2 -15 10 -58 56 -97 100 -85
100 -143 140 -168 114z"/>
<path d="M6595 1101 c-85 -38 -155 -154 -155 -255 0 -72 24 -126 77 -178 46
-44 150 -98 190 -98 63 0 169 95 212 191 42 91 16 202 -65 283 -75 74 -174 96
-259 57z m128 -105 c104 -43 126 -179 42 -263 -110 -110 -258 61 -185 212 30
62 77 79 143 51z"/>
<path d="M7171 899 c0 -228 7 -311 27 -331 17 -17 22 -7 49 84 13 46 32 92 43
102 17 18 22 18 46 5 15 -8 51 -45 80 -84 71 -96 96 -117 130 -113 57 6 45 65
-32 147 l-56 61 47 52 c83 92 96 154 44 212 -47 54 -121 77 -261 84 l-118 5 1
-224z m205 122 c46 -21 74 -54 74 -87 0 -25 -32 -40 -111 -50 -45 -6 -49 -5
-58 18 -19 51 -24 120 -10 129 22 14 61 10 105 -10z"/>
</g>
</svg>
