<svg xmlns="http://www.w3.org/2000/svg" shape-rendering="geometricPrecision" text-rendering="geometricPrecision" image-rendering="optimizeQuality" fill-rule="evenodd" clip-rule="evenodd" viewBox="0 0 1024 1024">
  <path fill="#fefefe" d="M368.5 916.5h293v36h-293v-36Z"/>
  <path fill="#fefefe" d="M423.5 843.5h183v36h-183v-36Z"/>
  <path fill="#fefefe" d="M578.5 124.5a16783.17 16783.17 0 0 0 12 20 494.603 494.603 0 0 1 25 54 8223.283 8223.283 0 0 0 7 18 421.797 421.797 0 0 1 14 59c1.339 8.428 2.673 16.761 4 25a389.715 389.715 0 0 1 1.5 19c.5 162.333.667 324.666.5 487h-255v-473c5.003-112.645 47.503-208.312 127.5-287 24.408 23.553 45.575 49.553 63.5 78Z"/>
  <path fill="#407fb4" d="M611.5 729.5h10v11h-10v-11Z"/>
  <path fill="#407fb4" d="M623.5 729.5a4.934 4.934 0 0 1 3 .5c2.923 5.839 4.257 5.673 4-.5h3v11a4.934 4.934 0 0 1-3-.5 17.842 17.842 0 0 0-4.5-5.5 20.2 20.2 0 0 1-1.5 6 31.116 31.116 0 0 1-1-11Z"/>
  <path fill="#407fb4" d="M482.5 729.5h4c-.15 3.661 1.35 4.661 4.5 3a4.934 4.934 0 0 0 .5-3h3a390.457 390.457 0 0 0-4 11h-3c.711-3.364-.456-5.697-3.5-7a11.333 11.333 0 0 1-1.5 3.5c.837 1.011 1.17 2.178 1 3.5-2.245-1.861-4.912-2.861-8-3 .215 1.679-.452 2.679-2 3v-11h9Z"/>
  <path fill="#407fb4" d="M513.5 729.5c3.398-.32 6.732.013 10 1l-7 2a9.86 9.86 0 0 0 6 1v3h-6v4h-3v-11Z"/>
  <path fill="#407fb4" d="M501.5 729.5h11c2.683 10.154-.817 13.488-10.5 10a50.464 50.464 0 0 1-.5-10Z"/>
  <path fill="#fefefe" d="M504.5 731.5h5v7h-5v-7Z"/>
  <path fill="#fefefe" d="M614.5 731.5h4v6h-4v-6Z"/>
  <path fill="#fefefe" d="M475.5 731.5h5v3h-5v-3Z"/>
  <path fill="#407fb4" d="M607.5 729.5c1.914 3.184 2.58 6.851 2 11-1.914-3.184-2.58-6.851-2-11Z"/>
  <path fill="#407fb4" d="M596.5 729.5c3.398-.32 6.732.013 10 1-1.189.929-2.522 1.262-4 1-.667 12-1.333 12-2 0-1.983.343-3.317-.324-4-2Z"/>
  <path fill="#407fb4" d="M595.5 729.5c.58 4.149-.086 7.816-2 11-.58-4.149.086-7.816 2-11Z"/>
  <path fill="#407fb4" d="M589.5 729.5c1.914 3.184 2.58 6.851 2 11-2.607-.816-4.607-2.483-6-5-.283-.789-.783-1.456-1.5-2a24.935 24.935 0 0 0-.5 7c-1.914-3.184-2.58-6.851-2-11a4.934 4.934 0 0 1 3 .5 55.747 55.747 0 0 0 4.5 5.5c.495-1.973.662-3.973.5-6Z"/>
  <path fill="#407fb4" d="M569.5 728.5h3v10h5v-9h3c2.683 10.154-.817 13.488-10.5 10a60.931 60.931 0 0 1-.5-11Z"/>
  <path fill="#407fb4" d="M555.5 728.5a4.934 4.934 0 0 1 3 .5c1.981 5.198 4.314 5.531 7 1a4.934 4.934 0 0 1 3-.5v11h-3a12.93 12.93 0 0 0-.5-5c-2.402 2.758-4.402 2.425-6-1a18.453 18.453 0 0 0-.5 6h-3v-12Z"/>
  <path fill="#407fb4" d="M542.5 729.5a4.934 4.934 0 0 1 3 .5c2 4.667 4 4.667 6 0a4.934 4.934 0 0 1 3-.5c.58 4.149-.086 7.816-2 11a24.935 24.935 0 0 0-.5-7c-.717.544-1.217 1.211-1.5 2-.311.978-.978 1.645-2 2a14.972 14.972 0 0 1-3.5-3c-.002 2.551-.836 4.551-2.5 6v-11Z"/>
  <path fill="#407fb4" d="m552.5 740.5-2-5c.283-.789.783-1.456 1.5-2 .497 2.31.663 4.643.5 7Z"/>
  <path fill="#407fb4" d="M540.5 729.5v11c-1.548-.321-2.215-1.321-2-3h-6c.219 1.175-.114 2.175-1 3-3.2-8.798-.2-12.464 9-11Z"/>
  <path fill="#407fb4" d="M461.5 740.5v-8c.453-.958 1.119-1.792 2-2.5a32.462 32.462 0 0 1 8-.5 31.116 31.116 0 0 1-1 11c-.886-.825-1.219-1.825-1-3h-6c.215 1.679-.452 2.679-2 3Z"/>
  <path fill="#fefefe" d="M465.5 731.5h4v3a18.453 18.453 0 0 1-6-.5c.881-.708 1.547-1.542 2-2.5Z"/>
  <path fill="#407fb4" d="M459.5 729.5v11c-2.928-1.091-5.094-3.091-6.5-6a18.453 18.453 0 0 0-.5 6h-3v-11c3.488.643 5.988 2.643 7.5 6 .002-2.551.836-4.551 2.5-6Z"/>
  <path fill="#407fb4" d="M438.5 729.5h10a50.464 50.464 0 0 1-.5 10c-3.057.951-6.223 1.284-9.5 1v-11Z"/>
  <path fill="#fefefe" d="M440.5 731.5h5v7h-5v-7Z"/>
  <path fill="#407fb4" d="M434.5 729.5c1.287 1.371 1.953 3.205 2 5.5l-1 5.5a31.116 31.116 0 0 1-1-11Z"/>
  <path fill="#407fb4" d="M423.5 729.5c3.398-.32 6.732.013 10 1-1.189.929-2.522 1.262-4 1-.667 12-1.333 12-2 0-1.983.343-3.317-.324-4-2Z"/>
  <path fill="#407fb4" d="M412.5 729.5h10v3a41.541 41.541 0 0 0-8-1v7a23.142 23.142 0 0 0 8-2c.17 1.322-.163 2.489-1 3.5a40.914 40.914 0 0 1-9 .5v-11Z"/>
  <path fill="#407fb4" d="M408.5 729.5c1.287 1.371 1.953 3.205 2 5.5-.047 2.295-.713 4.129-2 5.5v-11Z"/>
  <path fill="#407fb4" d="M406.5 732.5v7c-3.125.979-6.458 1.313-10 1v-11a32.462 32.462 0 0 1 8 .5c.881.708 1.547 1.542 2 2.5Z"/>
  <path fill="#fefefe" d="M399.5 731.5c4.3.315 5.967 2.649 5 7h-5v-7Z"/>
  <path fill="#407fb4" d="M580.5 462.5a363.752 363.752 0 0 0 37 1c-11.826 1.16-23.826 1.326-36 .5-.556-.383-.889-.883-1-1.5Z"/>
  <path fill="#407fb4" d="M518.5 415.5v48h9v1h-10a600.937 600.937 0 0 1 1-49Z"/>
  <path fill="#407fb4" d="M458.5 415.5v48h9c-.327-10.181.006-20.181 1-30v31h-11a600.937 600.937 0 0 1 1-49Z"/>
  <path fill="#407fb4" d="M570.5 415.5a600.937 600.937 0 0 1 1 49h-10v-1h9v-48Z"/>
  <path fill="#407fb4" d="M617.5 463.5a363.752 363.752 0 0 1-37-1c-1.29-.558-2.123-1.558-2.5-3a400.05 400.05 0 0 1 0-40l3.5-3.5c12-.667 24-.667 36 0l3.5 3.5a420.29 420.29 0 0 1 0 41 14.698 14.698 0 0 1-3.5 3Z"/>
  <path fill="#fefefe" d="M588.5 425.5h23v29h-23v-29Z"/>
  <path fill="#407fb4" d="M518.5 415.5c3.35-.165 6.683.002 10 .5a526.58 526.58 0 0 0 16 21.5 526.58 526.58 0 0 0 16-21.5 50.464 50.464 0 0 1 10-.5v48h-9a225.771 225.771 0 0 0-1-30c-.607.124-.94.457-1 1a4649.993 4649.993 0 0 1-10 15c-3.333 1.333-6.667 1.333-10 0a4649.993 4649.993 0 0 1-10-15c-.06-.543-.393-.876-1-1a225.771 225.771 0 0 0-1 30h-9v-48Z"/>
  <path fill="#407fb4" d="M458.5 415.5c3.35-.165 6.683.002 10 .5a501.783 501.783 0 0 0 16 21.5 924.756 924.756 0 0 1 17-21.5 50.464 50.464 0 0 1 10-.5v49c-3.542.313-6.875-.021-10-1 .166-10.006 0-20.006-.5-30-.717.544-1.217 1.211-1.5 2a149.218 149.218 0 0 0-9.5 14c-3.892 1.567-7.558 1.233-11-1a89.832 89.832 0 0 0-10.5-15c-.994 9.819-1.327 19.819-1 30h-9v-48Z"/>
  <path fill="#fefefe" d="m501.5 463.5-2-28c.283-.789.783-1.456 1.5-2 .5 9.994.666 19.994.5 30Z"/>
  <path fill="#407fb4" d="M441.5 464.5v-15h-24v15h-10c-.167-11.671 0-23.338.5-35l13.5-13.5c9.994-.5 19.994-.666 30-.5v49h-10Z"/>
  <path fill="#fefefe" d="M426.5 426.5h14v12h-22v-3l8-9Z"/>
</svg>
