<svg xmlns="http://www.w3.org/2000/svg" viewBox="0 0 24 24">
  <!-- Key Head -->
  <circle fill="#F5A623" cx="7" cy="7" r="4"/>
  <!-- Key Body/Stem -->
  <path fill="#F5A623" d="M9 10.5 A1.5 1.5 0 0 0 7.5 12 H4v2h3.5A1.5 1.5 0 0 0 9 15.5V18h2v-2.5A3.5 3.5 0 0 1 7.5 12 A3.5 3.5 0 0 1 11 8.5V6h-2v2.5A1.5 1.5 0 0 0 7.5 10 A1.5 1.5 0 0 0 9 10.5z"/>
  <!-- Key Teeth -->
  <path fill="#F5A623" d="M11 18h2v2h-2z M11 15h2v2h-2z"/>
  <!-- Question Mark -->
  <path fill="#D0021B" d="M17 7a3 3 0 0 1 3 3v1a3 3 0 0 1-3 3h-1a1 1 0 0 1-1-1v-1a1 1 0 0 0-1-1h-.5a.5.5 0 0 0 0 1H15v1a2 2 0 1 0 4 0v-1a4 4 0 0 0-4-4z"/>
  <circle fill="#D0021B" cx="17.5" cy="17" r="1"/>
</svg>