<svg class="svg-icon" style="width: 1em; height: 1em;vertical-align: middle;fill: currentColor;overflow: hidden;" viewBox="0 0 1024 1024" version="1.1" xmlns="http://www.w3.org/2000/svg"><path d="M773.737 407.656c3.288 9.381-1.651 19.652-11.033 22.94-9.382 3.288-19.653-1.651-22.94-11.033C705.285 321.193 612.158 254 506.252 254c-107.696 0-202.037 69.476-235.094 170.23-3.1 9.445-13.269 14.59-22.715 11.491-9.445-3.1-14.59-13.269-11.491-22.714C274.825 297.577 382.883 218 506.253 218c121.318 0 227.987 76.964 267.484 189.656z" fill="#333333" /><path d="M613.508 805.84c-9.941 0-18-8.058-18-18 0-9.94 8.059-18 18-18h114.446c93.36 0 169.046-75.712 169.046-169.112 0-83.353-60.685-153.926-142.066-166.974-9.815-1.573-16.497-10.806-14.923-20.622 1.573-9.816 10.806-16.497 20.622-14.924C859.41 414.044 933 499.626 933 600.728c0 113.279-91.8 205.113-205.046 205.113H613.508zM248.577 400.68c9.695-2.197 19.336 3.882 21.532 13.577 2.197 9.696-3.882 19.336-13.577 21.533C180.152 453.094 125 521.322 125 600.728c0 93.4 75.686 169.113 169.046 169.113h100.22c9.94 0 18 8.059 18 18 0 9.94-8.06 18-18 18h-100.22C180.8 805.84 89 714.007 89 600.728c0-96.312 66.88-179.047 159.577-200.048z" fill="#333333" /><path d="M664.202 837.694c7.524 6.498 8.356 17.864 1.858 25.388-6.497 7.524-17.864 8.356-25.388 1.859l-78.219-67.55c-8.258-7.13-8.323-19.91-0.138-27.125l78.22-68.95c7.457-6.575 18.831-5.858 25.405 1.6 6.574 7.456 5.857 18.83-1.6 25.405l-62.743 55.308 62.605 54.065z" fill="black" /></svg>