<svg viewBox="203 87.613 591.837 610.714" xmlns="http://www.w3.org/2000/svg">
  <rect width="591.837" height="610.714" x="203" y="87.613" fill="#4070f4"/>
  <path d="M107.209 401.779Zm445.175-299.427c11.393 2.42 22.478 9.017 30.56 18.329 2.233 2.567 3.002 3.813 6.929 10.997 3.156 5.792 6.544 9.312 10.777 11.145 2.617 1.099 5.081 1.246 27.713 1.833l6.543.147v24.927H617.97c-15.858-.073-21.784-.585-26.942-2.492-5.158-1.907-11.162-5.28-14.472-8.066-3.85-3.298-9.777-10.41-9.777-11.73 0-.367-.308-.806-.616-.954-.308-.145-1.694-2.419-3.002-5.058-1.309-2.713-3.541-5.865-4.927-7.112-10.161-9.091-27.482-8.138-38.259 2.052-5.234 4.913-7.929 10.339-8.621 17.378-.386 3.152-.463 5.865-.231 6.084.154.146 8.236.22 18.013.074l17.627-.221v60.999h-47.265c-42.416 0-47.265-.145-47.727-1.171-.231-.66-.462-14.151-.462-29.987 0-25.587.154-28.888 1.231-29.254.694-.22 7.852-.44 16.089-.44h14.781l.539-2.785c.23-1.467.462-4.986.462-7.773 0-5.131.539-7.257 3.232-14.002 1.694-4.107 7.313-12.978 10.008-15.763 3.233-3.447 13.779-10.998 15.242-10.998.385 0 .77-.294.77-.733 0-.367 1.232-.881 2.693-1.174 1.464-.22 2.695-.733 2.695-1.1 0-.365.77-.66 1.771-.66s2.078-.293 2.541-.659c1.231-1.247 11.238-2.86 17.474-2.933 3.31-.074 8.468.44 11.547 1.1ZM416.668 215.114c0 9.457-.23 17.669-.462 18.329-.462 1.026-5.619 1.173-50.422 1.173h-49.96l.155 18.476.23 18.55 15.782.366 15.78.366.462 98.978c.308 64.593.769 101.031 1.308 104.843 1.386 9.751 3.696 20.969 4.774 23.462.307.806 1.308 3.592 2.155 6.232 2.464 7.625 5.08 14.296 5.772 14.517.309.146.54.587.54 1.026 0 1.026 7.929 16.275 8.699 16.569.308.148.538.733.538 1.32 0 .587.232 1.026.616 1.026.308 0 1.541 1.761 2.772 3.887 1.309 2.052 2.925 4.473 3.695 5.205.77.807 1.385 1.686 1.385 1.98 0 .293.463 1.025 1.002 1.54.539.512 2 2.272 3.233 3.959 7.39 9.678 21.477 23.241 32.408 31.232 1.232.882 2.387 1.834 2.617 2.053.231.221 2.309 1.686 4.619 3.3 2.309 1.613 4.388 3.078 4.619 3.299.231.22 2.771 1.833 5.696 3.592 2.925 1.76 5.697 3.52 6.159 3.886.462.294 3.618 2.346 7.004 4.472 3.388 2.053 6.313 4.032 6.39 4.326.154.366.77.587 1.386.587.616 0 1.078.22 1.078.587 0 .293 1.231 1.172 2.694 1.906 1.463.806 2.694 1.612 2.694 1.905 0 .368.847.808 1.924 1.028 1.078.292 1.926.806 1.926 1.172 0 .44.539.734 1.155.734.615 0 1.154.293 1.154.587 0 .366 1.155 1.172 2.54 1.832 2.925 1.466 5.389 2.932 5.927 3.52.231.219 4.697 3.006 10.008 6.231 5.312 3.154 10.084 6.306 10.622 7.038.848 1.1 1.31 1.174 2.695.514.925-.514 1.848-1.1 2.079-1.393.231-.293 2.848-1.979 5.773-3.665 3.002-1.761 7.468-4.547 10.008-6.233 2.539-1.686 5.158-3.299 5.773-3.519 1.309-.587 4.003-2.126 4.618-2.713 1.31-1.319 6.16-4.399 6.852-4.399.462 0 .847-.219.847-.586 0-.293 1.232-1.174 2.694-1.907 1.463-.806 2.694-1.685 2.694-2.052 0-.293.386-.587.77-.587.462 0 2.541-1.175 4.618-2.567 2.08-1.393 4.157-2.565 4.543-2.565.385 0 .848-.22 1.001-.587.153-.293 2.694-2.052 5.696-4.032 3.002-1.907 6.236-4.106 7.236-4.913 1.001-.806 2.232-1.466 2.848-1.466.539 0 1.001-.219 1.001-.586 0-.293 1.617-1.539 3.465-2.713 1.923-1.246 3.464-2.419 3.464-2.786 0-.293.461-.514 1.077-.514.616 0 1.232-.294 1.386-.586.154-.366 1.693-1.687 3.542-2.859 6.696-4.619 24.093-20.309 27.481-24.782.846-1.098 2.386-2.932 3.464-3.959 1.078-1.099 3.31-3.739 5.003-5.939 1.694-2.199 3.234-4.179 3.465-4.398.23-.22 1.462-2.053 2.694-4.032 1.154-2.054 2.386-3.813 2.617-4.034 1.155-.878 7.852-13.417 10.392-19.428 1.232-2.859 2.464-5.499 2.772-5.865.231-.442 1.078-2.712 1.847-5.133.77-2.42 1.694-4.985 2.079-5.645.385-.734.693-1.98.693-2.712 0-.807.308-1.614.692-1.833.308-.221.847-1.467 1.078-2.786.231-1.321 1-4.766 1.771-7.553 3.848-15.543 4.234-26.54 4.002-125.738l-.23-90.547 16.781-.22 16.705-.146V234.25l-50.807.219-50.729.292-.385-1.758c-.539-2.346-1.155-32.993-.693-34.167.307-.66 15.088-.878 70.359-.878h69.976V306.98l-3.927.512c-2.078.294-8.621.294-14.472 0-5.85-.292-11.47-.292-12.471-.073l-1.847.441-.077 79.401c-.077 68.48-.232 80.869-1.31 90.035-.692 5.866-1.615 12.244-2 14.296-.463 1.98-1.155 5.791-1.617 8.431-.463 2.64-1.155 5.426-1.462 6.233-.386.806-1.078 2.932-1.617 4.766-1.694 5.791-3.388 10.63-4.003 11.363-.308.367-.616 1.394-.616 2.273 0 .953-.308 1.833-.693 2.053-.384.219-.923 1.246-1.154 2.273-.924 3.445-5.543 12.757-11.779 23.46-1.385 2.421-2.771 4.986-3.002 5.646-.308.733-.769 1.32-1.155 1.32-.384 0-.692.294-.692.733 0 .808-5.157 8.725-6.698 10.119-.539.512-1.001 1.172-1.001 1.466 0 .293-.769 1.392-1.77 2.492-.923 1.1-3.232 3.812-5.157 6.085-3.157 3.814-7.006 7.918-14.164 15.031-6.236 6.232-18.399 16.789-23.48 20.381-1.539 1.1-3.233 2.42-3.772 2.933-.539.441-1.308.881-1.617.881-.307 0-1.231.586-2.077 1.318-2.772 2.42-7.16 5.28-7.929 5.28-.462 0-.847.293-.847.66 0 .366-.617.879-1.309 1.098-.769.222-2.386 1.247-3.695 2.347-1.231 1.027-3.617 2.566-5.158 3.447-1.617.806-2.925 1.759-2.925 1.98 0 .293-1.386 1.099-3.08 1.831-1.693.734-3.078 1.614-3.078 1.981 0 .293-.539.586-1.155.586s-1.155.294-1.155.587c0 .367-1.231 1.245-2.695 2.053-1.461.733-2.693 1.612-2.693 1.906 0 .366-.539.586-1.155.586-.615 0-1.154.293-1.154.66 0 .367-.847.88-1.925 1.099-1.078.295-1.924.807-1.924 1.174 0 .44-.386.733-.77.733-.924 0-7.237 3.812-7.544 4.546-.155.366-.771.586-1.387.586-.615 0-1.078.221-1.078.587 0 .294-1.231 1.173-2.693 1.907-1.463.805-2.695 1.686-2.695 2.052 0 .294-.308.587-.615.587-.616 0-17.475 10.264-19.169 11.657-.538.44-1.231.806-1.693.806-.384 0-.847.22-1 .514-.309.733-9.777 6.819-10.547 6.819-.308 0-1.232.658-2.001 1.466-.77.805-1.848 1.465-2.309 1.465-.539 0-1.386.514-1.925 1.101-.538.586-1.693 1.099-2.541 1.099-1.231 0-27.02-15.47-28.251-16.936-.231-.293-3.464-2.2-7.314-4.325-3.771-2.2-7.004-4.18-7.159-4.546-.153-.294-.769-.587-1.385-.587s-1.078-.293-1.078-.66c0-.367-.77-.953-1.693-1.246-2.002-.586-10.085-5.499-10.47-6.378-.153-.293-.769-.514-1.308-.514s-1.155-.22-1.309-.587c-.385-.879-16.166-10.778-18.475-11.583-.77-.22-1.386-.66-1.386-.953 0-.294-1.155-1.1-2.463-1.907-1.385-.733-2.695-1.54-2.925-1.759-1.002-1.174-6.159-4.473-6.851-4.473-.462 0-.847-.293-.847-.659 0-.367-.616-.88-1.309-1.101-.769-.219-2.31-1.246-3.541-2.199-1.155-.954-3.311-2.493-4.773-3.447-1.463-.951-2.695-1.978-2.695-2.345 0-.293-.461-.513-1.077-.513-.615 0-1.231-.221-1.386-.587-.076-.293-1.847-1.76-3.925-3.3-5.312-4.105-24.095-22.067-29.253-28.006-6.389-7.331-6.312-7.185-7.929-9.751-.769-1.32-1.693-2.346-1.924-2.346-.308 0-.769-.587-1.002-1.32-.306-.733-1.154-1.98-1.923-2.86-.77-.806-2.387-2.859-3.541-4.693-1.232-1.759-2.387-3.372-2.618-3.59-.308-.221-1.155-1.761-2.001-3.448-.847-1.759-1.771-3.151-2.079-3.151-.384 0-.616-.44-.616-1.027 0-.586-.231-1.173-.539-1.32-1.231-.513-9.544-17.669-12.163-25.148-1.077-3.226-2.308-6.525-2.694-7.331-.384-.807-.923-2.64-1.231-4.033-.231-1.393-.77-2.933-1.078-3.3-.307-.438-.77-1.54-1.001-2.566-.231-1.026-1-3.812-1.692-6.231-1.618-5.425-2.619-10.117-3.62-17.23-.46-3.373-.999-39.225-1.308-92.012l-.463-86.515-13.008.22c-7.083.147-14.165.074-15.55-.22l-2.618-.44V197.958h138.564v17.156Zm101.614 26.76c2.31.44 5.619.954 7.312 1.246 1.694.221 3.465.735 3.849 1.026.462.369 2.386.807 4.466 1.101 2 .293 3.617.806 3.617 1.173 0 .365.693.659 1.541.659.846 0 2.155.293 2.924.66.693.366 4.466 2.054 8.237 3.814 3.849 1.758 7.083 3.445 7.159 3.738.155.367.77.586 1.386.586.616 0 1.077.294 1.077.734 0 .366.386.733.77.733.694 0 5.851 3.373 11.086 7.259 2.694 2.053 17.704 16.57 20.168 19.576 1.309 1.539 3.388 4.325 4.619 6.157 1.232 1.834 2.387 3.448 2.617 3.666.232.22 1.155 1.834 2.156 3.666.924 1.834 2.233 4.106 2.848 5.132 2.001 3.227 6.39 12.759 7.006 15.03.307 1.174.769 2.494 1.077 2.933 1.078 1.54 2.464 6.819 2.001 7.625-.77 1.173-227.629 1.173-228.861 0-1.078-1.026.232-5.352 4.08-13.636.616-1.247 1.078-2.786 1.078-3.446 0-.66.385-1.174.77-1.174.462 0 .77-.293.77-.733 0-.806 3.925-8.945 4.618-9.531.232-.22 1.001-1.54 1.694-2.933 1.54-2.785 3.079-5.279 3.772-5.865.231-.22 1.154-1.612 2.155-3.152 1.001-1.541 2.156-3.153 2.695-3.666.461-.441 2.078-2.347 3.541-4.18 3.156-3.886 10.7-11.07 15.395-14.663 1.848-1.393 3.773-3.005 4.312-3.52.539-.439 1.308-.88 1.694-.88.46 0 .923-.292 1.076-.66.617-1.466 20.478-11.802 22.71-11.802.539 0 1.001-.367 1.001-.734 0-.441.847-.734 1.924-.734 1.078 0 1.925-.294 1.925-.659 0-.367 1.693-.88 3.849-1.173 2.079-.294 4.003-.807 4.311-1.174.231-.367 1.539-.66 2.925-.66s2.771-.218 3.079-.585c2.156-2.054 33.178-2.714 43.571-.954ZM430.14 359.035c-1.925 7.478-5.235 33.505-6.467 50.809l-.462 6.965-25.942.219-26.019.148-.462-1.907c-1.231-4.693 1.847-38.418 4.388-47.435.462-1.688 1.155-4.401 1.617-6.013.462-1.612.923-3.372 1.078-3.886.23-.66 6.157-.88 26.557-.88h26.25l-.538 1.98Zm108.079 0c1.386 3.299 4.388 54.402 3.311 57.187-.231.733-9.238.954-41.646.954-22.71 0-41.724-.294-42.339-.66-.847-.514-.924-2.419-.616-9.312.924-18.109 3.156-41.643 4.541-47.069l.847-3.08h75.056l.846 1.98Zm82.83-1.246c1.155 1.76 3.695 12.463 5.081 21.629.847 5.424 2.387 35.557 1.848 36.804-.231.733-6.081.954-26.02.954h-25.633l-1.002-11.219c-1.77-21.408-4.079-39.737-5.926-46.922l-.462-1.98h25.788c16.165 0 26.019.293 26.326.734Zm-92.529 89.3 12.855.22v7.772c0 4.326-.308 9.677-.769 11.876-.385 2.273-1.078 7.699-1.539 12.172-.694 7.551-1.387 12.17-2.849 20.161l-.616 3.299-35.718.221c-23.71.072-36.027-.073-36.643-.586-.539-.441-1.155-2.64-1.385-4.986-.232-2.274-1.001-8.14-1.617-12.977-.693-4.84-1.54-14.737-2.002-21.924-.384-7.256-.923-13.269-1.155-13.489-.231-.219 0-.806.463-1.393.769-.806 6.158-.952 29.482-.806 15.705.146 34.334.293 41.493.44Zm-104.615 7.992c.461 10.044 1.693 23.314 2.694 29.546.461 2.639 1 5.718 1.154 6.965.232 1.172.771 3.959 1.154 6.158.462 2.2.617 4.253.386 4.619-.23.294-9.853.587-21.401.587H386.8l-3.156-7.258c-1.693-4.033-3.157-7.845-3.157-8.432 0-.586-.307-1.32-.769-1.54-.385-.218-.77-1.246-.77-2.272 0-.953-.308-2.347-.693-3.079-1.078-1.98-2.155-5.939-3.464-12.245-2.233-11.363-2.772-14.589-2.772-17.742v-3.153h51.5l.386 7.846Zm203.38-5.5c-.308 1.32-.692 3.887-.923 5.718-1.463 12.905-6.468 31.235-10.392 38.273-.386.732-.694 1.686-.694 2.2 0 .439-.693 2.271-1.616 4.031l-1.617 3.153h-43.108l.383-2.786c.233-1.467 1.002-5.866 1.617-9.677 1.694-9.605 2.849-17.523 3.541-25.295.309-3.666.847-9.164 1.155-12.317l.617-5.646h51.576l-.539 2.346ZM436.99 536.462c.771 1.98 1.617 4.106 2.08 4.766.384.733.692 1.759.692 2.346 0 .513 1.386 3.959 3.08 7.625 1.693 3.592 3.079 6.964 3.079 7.405 0 .44.385.806.769.806.462 0 .771.439.771.881 0 1.098 5.465 11.803 6.85 13.343 2.232 2.566.077 2.419-5.695-.367-3.388-1.613-6.699-3.446-7.391-4.032-.616-.586-1.463-1.027-1.771-1.027-.308 0-.923-.367-1.462-.733-.539-.44-2.849-2.125-5.158-3.739-2.31-1.687-5.542-4.105-7.082-5.498-1.54-1.395-3.157-2.493-3.618-2.493-.385 0-.847-.294-1.001-.66-.077-.367-2.618-3.079-5.62-6.085-2.925-2.934-6.389-6.673-7.697-8.212-1.232-1.54-2.925-3.446-3.619-4.326-3.079-3.299-2.463-3.446 15.089-3.446h16.396l1.308 3.446Zm91.607-1.467a25.603 25.603 0 0 1-1.001 3.521c-.385.805-1.078 2.932-1.539 4.764-.539 1.833-1.232 4.253-1.54 5.499-.847 2.567-5.158 14.004-6.158 16.131-4.696 9.677-6.852 13.782-9.007 17.009l-2.617 3.886h-13.78l-2.232-2.64c-1.232-1.393-2.926-3.887-3.696-5.498-.846-1.54-1.693-2.86-2-2.86-.386 0-.616-.367-.616-.807 0-.44-1.001-2.858-2.233-5.351-3.926-7.992-5.466-11.585-5.466-12.978 0-.806-.308-1.392-.616-1.392-.539 0-1.385-2.786-2.925-9.533-.231-1.025-.692-2.492-1.078-3.298-.384-.807-.846-2.272-1-3.299-.231-1.027-.693-2.567-.924-3.52l-.539-1.613h59.429l-.462 1.979Zm67.434-1.538c0 .878-1.847 3.739-4.541 6.89-3.464 4.106-17.167 17.598-17.937 17.598-.538 0-2.771 1.686-5.543 4.032-.462.439-2.771 2.053-5.08 3.666-2.31 1.613-4.388 3.079-4.619 3.372-.231.22-1.155.66-2.078.954-1.001.293-1.771.879-1.771 1.246 0 .365-.538.659-1.155.659-.615 0-1.153.293-1.153.734 0 .366-.695.733-1.464.733-.846 0-1.617.219-1.771.513-.307.733-5.311 3.299-5.696 2.932-.154-.146.616-1.466 1.617-2.932 1.078-1.466 1.923-3.006 1.923-3.372 0-.441.386-.807.772-.807.461 0 .769-.366.769-.807 0-.44 1.155-3.153 2.616-6.012 4.312-8.871 5.775-12.097 7.776-17.743.693-2.052 1.54-4.325 1.924-5.132.385-.805 1.078-2.712 1.54-4.253l.924-2.712h16.474c9.083 0 16.473.22 16.473.441Z" fill="#f0f0f0"/>
</svg>
