<svg xmlns="http://www.w3.org/2000/svg" viewBox="223 102 571 795">
	<path d="M 0 512 z m 578.3 -408.4 c 14.8 3.3 29.2 12.3 39.7 25 c 2.9 3.5 3.9 5.2 9 15 c 4.1 7.9 8.5 12.7 14 15.2 c 3.4 1.5 6.6 1.7 36 2.5 l 8.5 0.2 v 34 h -22 c -20.6 -0.1 -28.3 -0.8 -35 -3.4 c -6.7 -2.6 -14.5 -7.2 -18.8 -11 c -5 -4.5 -12.7 -14.2 -12.7 -16 c 0 -0.5 -0.4 -1.1 -0.8 -1.3 c -0.4 -0.2 -2.2 -3.3 -3.9 -6.9 c -1.7 -3.7 -4.6 -8 -6.4 -9.7 c -13.2 -12.4 -35.7 -11.1 -49.7 2.8 c -6.8 6.7 -10.3 14.1 -11.2 23.7 c -0.5 4.3 -0.6 8 -0.3 8.3 c 0.2 0.2 10.7 0.3 23.4 0.1 l 22.9 -0.3 V 265 h -61.4 c -55.1 0 -61.4 -0.2 -62 -1.6 c -0.3 -0.9 -0.6 -19.3 -0.6 -40.9 c 0 -34.9 0.2 -39.4 1.6 -39.9 c 0.9 -0.3 10.2 -0.6 20.9 -0.6 h 19.2 l 0.7 -3.8 c 0.3 -2 0.6 -6.8 0.6 -10.6 c 0 -7 0.7 -9.9 4.2 -19.1 c 2.2 -5.6 9.5 -17.7 13 -21.5 c 4.2 -4.7 17.9 -15 19.8 -15 c 0.5 0 1 -0.4 1 -1 c 0 -0.5 1.6 -1.2 3.5 -1.6 c 1.9 -0.3 3.5 -1 3.5 -1.5 s 1 -0.9 2.3 -0.9 c 1.3 0 2.7 -0.4 3.3 -0.9 c 1.6 -1.7 14.6 -3.9 22.7 -4 c 4.3 -0.1 11 0.6 15 1.5 z M 402 257.4 c 0 12.9 -0.3 24.1 -0.6 25 c -0.6 1.4 -7.3 1.6 -65.5 1.6 H 271 l 0.2 25.2 l 0.3 25.3 l 20.5 0.5 l 20.5 0.5 l 0.6 135 c 0.4 88.1 1 137.8 1.7 143 c 1.8 13.3 4.8 28.6 6.2 32 c 0.4 1.1 1.7 4.9 2.8 8.5 c 3.2 10.4 6.6 19.5 7.5 19.8 c 0.4 0.2 0.7 0.8 0.7 1.4 c 0 1.4 10.3 22.2 11.3 22.6 c 0.4 0.2 0.7 1 0.7 1.8 s 0.3 1.4 0.8 1.4 c 0.4 0 2 2.4 3.6 5.3 c 1.7 2.8 3.8 6.1 4.8 7.1 c 1 1.1 1.8 2.3 1.8 2.7 c 0 0.4 0.6 1.4 1.3 2.1 c 0.7 0.7 2.6 3.1 4.2 5.4 c 9.6 13.2 27.9 31.7 42.1 42.6 c 1.6 1.2 3.1 2.5 3.4 2.8 c 0.3 0.3 3 2.3 6 4.5 s 5.7 4.2 6 4.5 c 0.3 0.3 3.6 2.5 7.4 4.9 c 3.8 2.4 7.4 4.8 8 5.3 c 0.6 0.4 4.7 3.2 9.1 6.1 c 4.4 2.8 8.2 5.5 8.3 5.9 c 0.2 0.5 1 0.8 1.8 0.8 s 1.4 0.3 1.4 0.8 c 0 0.4 1.6 1.6 3.5 2.6 c 1.9 1.1 3.5 2.2 3.5 2.6 c 0 0.5 1.1 1.1 2.5 1.4 c 1.4 0.4 2.5 1.1 2.5 1.6 c 0 0.6 0.7 1 1.5 1 s 1.5 0.4 1.5 0.8 c 0 0.5 1.5 1.6 3.3 2.5 c 3.8 2 7 4 7.7 4.8 c 0.3 0.3 6.1 4.1 13 8.5 c 6.9 4.3 13.1 8.6 13.8 9.6 c 1.1 1.5 1.7 1.6 3.5 0.7 c 1.2 -0.7 2.4 -1.5 2.7 -1.9 c 0.3 -0.4 3.7 -2.7 7.5 -5 c 3.9 -2.4 9.7 -6.2 13 -8.5 c 3.3 -2.3 6.7 -4.5 7.5 -4.8 c 1.7 -0.8 5.2 -2.9 6 -3.7 c 1.7 -1.8 8 -6 8.9 -6 c 0.6 0 1.1 -0.3 1.1 -0.8 c 0 -0.4 1.6 -1.6 3.5 -2.6 c 1.9 -1.1 3.5 -2.3 3.5 -2.8 c 0 -0.4 0.5 -0.8 1 -0.8 c 0.6 0 3.3 -1.6 6 -3.5 s 5.4 -3.5 5.9 -3.5 s 1.1 -0.3 1.3 -0.8 c 0.2 -0.4 3.5 -2.8 7.4 -5.5 c 3.9 -2.6 8.1 -5.6 9.4 -6.7 c 1.3 -1.1 2.9 -2 3.7 -2 c 0.7 0 1.3 -0.3 1.3 -0.8 c 0 -0.4 2.1 -2.1 4.5 -3.7 c 2.5 -1.7 4.5 -3.3 4.5 -3.8 c 0 -0.4 0.6 -0.7 1.4 -0.7 c 0.8 0 1.6 -0.4 1.8 -0.8 c 0.2 -0.5 2.2 -2.3 4.6 -3.9 c 8.7 -6.3 31.3 -27.7 35.7 -33.8 c 1.1 -1.5 3.1 -4 4.5 -5.4 c 1.4 -1.5 4.3 -5.1 6.5 -8.1 s 4.2 -5.7 4.5 -6 c 0.3 -0.3 1.9 -2.8 3.5 -5.5 c 1.5 -2.8 3.1 -5.2 3.4 -5.5 c 1.5 -1.2 10.2 -18.3 13.5 -26.5 c 1.6 -3.9 3.2 -7.5 3.6 -8 c 0.3 -0.6 1.4 -3.7 2.4 -7 s 2.2 -6.8 2.7 -7.7 c 0.5 -1 0.9 -2.7 0.9 -3.7 c 0 -1.1 0.4 -2.2 0.9 -2.5 c 0.4 -0.3 1.1 -2 1.4 -3.8 c 0.3 -1.8 1.3 -6.5 2.3 -10.3 c 5 -21.2 5.5 -36.2 5.2 -171.5 l -0.3 -123.5 l 21.8 -0.3 l 21.7 -0.2 v -52.5 l -66 0.3 l -65.9 0.4 l -0.5 -2.4 c -0.7 -3.2 -1.5 -45 -0.9 -46.6 c 0.4 -0.9 19.6 -1.2 91.4 -1.2 H 800 v 148.7 l -5.1 0.7 c -2.7 0.4 -11.2 0.4 -18.8 0 c -7.6 -0.4 -14.9 -0.4 -16.2 -0.1 l -2.4 0.6 l -0.1 108.3 c -0.1 93.4 -0.3 110.3 -1.7 122.8 c -0.9 8 -2.1 16.7 -2.6 19.5 c -0.6 2.7 -1.5 7.9 -2.1 11.5 c -0.6 3.6 -1.5 7.4 -1.9 8.5 c -0.5 1.1 -1.4 4 -2.1 6.5 c -2.2 7.9 -4.4 14.5 -5.2 15.5 c -0.4 0.5 -0.8 1.9 -0.8 3.1 c 0 1.3 -0.4 2.5 -0.9 2.8 c -0.5 0.3 -1.2 1.7 -1.5 3.1 c -1.2 4.7 -7.2 17.4 -15.3 32 c -1.8 3.3 -3.6 6.8 -3.9 7.7 c -0.4 1 -1 1.8 -1.5 1.8 s -0.9 0.4 -0.9 1 c 0 1.1 -6.7 11.9 -8.7 13.8 c -0.7 0.7 -1.3 1.6 -1.3 2 c 0 0.4 -1 1.9 -2.3 3.4 c -1.2 1.5 -4.2 5.2 -6.7 8.3 c -4.1 5.2 -9.1 10.8 -18.4 20.5 c -8.1 8.5 -23.9 22.9 -30.5 27.8 c -2 1.5 -4.2 3.3 -4.9 4 c -0.7 0.6 -1.7 1.2 -2.1 1.2 c -0.4 0 -1.6 0.8 -2.7 1.8 c -3.6 3.3 -9.3 7.2 -10.3 7.2 c -0.6 0 -1.1 0.4 -1.1 0.9 s -0.8 1.2 -1.7 1.5 c -1 0.3 -3.1 1.7 -4.8 3.2 c -1.6 1.4 -4.7 3.5 -6.7 4.7 c -2.1 1.1 -3.8 2.4 -3.8 2.7 c 0 0.4 -1.8 1.5 -4 2.5 s -4 2.2 -4 2.7 c 0 0.4 -0.7 0.8 -1.5 0.8 s -1.5 0.4 -1.5 0.8 c 0 0.5 -1.6 1.7 -3.5 2.8 c -1.9 1 -3.5 2.2 -3.5 2.6 c 0 0.5 -0.7 0.8 -1.5 0.8 s -1.5 0.4 -1.5 0.9 s -1.1 1.2 -2.5 1.5 c -1.4 0.4 -2.5 1.1 -2.5 1.6 c 0 0.6 -0.5 1 -1 1 c -1.2 0 -9.4 5.2 -9.8 6.2 c -0.2 0.5 -1 0.8 -1.8 0.8 s -1.4 0.3 -1.4 0.8 c 0 0.4 -1.6 1.6 -3.5 2.6 c -1.9 1.1 -3.5 2.3 -3.5 2.8 c 0 0.4 -0.4 0.8 -0.8 0.8 c -0.8 0 -22.7 14 -24.9 15.9 c -0.7 0.6 -1.6 1.1 -2.2 1.1 c -0.5 0 -1.1 0.3 -1.3 0.7 c -0.4 1 -12.7 9.3 -13.7 9.3 c -0.4 0 -1.6 0.9 -2.6 2 s -2.4 2 -3 2 c -0.7 0 -1.8 0.7 -2.5 1.5 s -2.2 1.5 -3.3 1.5 c -1.6 0 -35.1 -21.1 -36.7 -23.1 c -0.3 -0.4 -4.5 -3 -9.5 -5.9 c -4.9 -3 -9.1 -5.7 -9.3 -6.2 c -0.2 -0.4 -1 -0.8 -1.8 -0.8 s -1.4 -0.4 -1.4 -0.9 s -1 -1.3 -2.2 -1.7 c -2.6 -0.8 -13.1 -7.5 -13.6 -8.7 c -0.2 -0.4 -1 -0.7 -1.7 -0.7 s -1.5 -0.3 -1.7 -0.8 c -0.5 -1.2 -21 -14.7 -24 -15.8 c -1 -0.3 -1.8 -0.9 -1.8 -1.3 s -1.5 -1.5 -3.2 -2.6 c -1.8 -1 -3.5 -2.1 -3.8 -2.4 c -1.3 -1.6 -8 -6.1 -8.9 -6.1 c -0.6 0 -1.1 -0.4 -1.1 -0.9 s -0.8 -1.2 -1.7 -1.5 c -1 -0.3 -3 -1.7 -4.6 -3 c -1.5 -1.3 -4.3 -3.4 -6.2 -4.7 c -1.9 -1.3 -3.5 -2.7 -3.5 -3.2 c 0 -0.4 -0.6 -0.7 -1.4 -0.7 c -0.8 0 -1.6 -0.3 -1.8 -0.8 c -0.1 -0.4 -2.4 -2.4 -5.1 -4.5 c -6.9 -5.6 -31.3 -30.1 -38 -38.2 c -8.3 -10 -8.2 -9.8 -10.3 -13.3 c -1 -1.8 -2.2 -3.2 -2.5 -3.2 c -0.4 0 -1 -0.8 -1.3 -1.8 c -0.4 -1 -1.5 -2.7 -2.5 -3.9 c -1 -1.1 -3.1 -3.9 -4.6 -6.4 c -1.6 -2.4 -3.1 -4.6 -3.4 -4.9 c -0.4 -0.3 -1.5 -2.4 -2.6 -4.7 c -1.1 -2.4 -2.3 -4.3 -2.7 -4.3 c -0.5 0 -0.8 -0.6 -0.8 -1.4 c 0 -0.8 -0.3 -1.6 -0.7 -1.8 c -1.6 -0.7 -12.4 -24.1 -15.8 -34.3 c -1.4 -4.4 -3 -8.9 -3.5 -10 c -0.5 -1.1 -1.2 -3.6 -1.6 -5.5 c -0.3 -1.9 -1 -4 -1.4 -4.5 c -0.4 -0.6 -1 -2.1 -1.3 -3.5 c -0.3 -1.4 -1.3 -5.2 -2.2 -8.5 c -2.1 -7.4 -3.4 -13.8 -4.7 -23.5 c -0.6 -4.6 -1.3 -53.5 -1.7 -125.5 l -0.6 -118 l -16.9 0.3 c -9.2 0.2 -18.4 0.1 -20.2 -0.3 l -3.4 -0.6 V 234 h 180 v 23.4 z m 132 36.5 c 3 0.6 7.3 1.3 9.5 1.7 c 2.2 0.3 4.5 1 5 1.4 c 0.6 0.5 3.1 1.1 5.8 1.5 c 2.6 0.4 4.7 1.1 4.7 1.6 s 0.9 0.9 2 0.9 s 2.8 0.4 3.8 0.9 c 0.9 0.5 5.8 2.8 10.7 5.2 c 5 2.4 9.2 4.7 9.3 5.1 c 0.2 0.5 1 0.8 1.8 0.8 s 1.4 0.4 1.4 1 c 0 0.5 0.5 1 1 1 c 0.9 0 7.6 4.6 14.4 9.9 c 3.5 2.8 23 22.6 26.2 26.7 c 1.7 2.1 4.4 5.9 6 8.4 c 1.6 2.5 3.1 4.7 3.4 5 c 0.3 0.3 1.5 2.5 2.8 5 c 1.2 2.5 2.9 5.6 3.7 7 c 2.6 4.4 8.3 17.4 9.1 20.5 c 0.4 1.6 1 3.4 1.4 4 c 1.4 2.1 3.2 9.3 2.6 10.4 c -1 1.6 -295.7 1.6 -297.3 0 c -1.4 -1.4 0.3 -7.3 5.3 -18.6 c 0.8 -1.7 1.4 -3.8 1.4 -4.7 c 0 -0.9 0.5 -1.6 1 -1.6 c 0.6 0 1 -0.4 1 -1 c 0 -1.1 5.1 -12.2 6 -13 c 0.3 -0.3 1.3 -2.1 2.2 -4 c 2 -3.8 4 -7.2 4.9 -8 c 0.3 -0.3 1.5 -2.2 2.8 -4.3 c 1.3 -2.1 2.8 -4.3 3.5 -5 c 0.6 -0.6 2.7 -3.2 4.6 -5.7 c 4.1 -5.3 13.9 -15.1 20 -20 c 2.4 -1.9 4.9 -4.1 5.6 -4.8 c 0.7 -0.6 1.7 -1.2 2.2 -1.2 c 0.6 0 1.2 -0.4 1.4 -0.9 c 0.8 -2 26.6 -16.1 29.5 -16.1 c 0.7 0 1.3 -0.5 1.3 -1 c 0 -0.6 1.1 -1 2.5 -1 s 2.5 -0.4 2.5 -0.9 s 2.2 -1.2 5 -1.6 c 2.7 -0.4 5.2 -1.1 5.6 -1.6 c 0.3 -0.5 2 -0.9 3.8 -0.9 c 1.8 0 3.6 -0.3 4 -0.8 c 2.8 -2.8 43.1 -3.7 56.6 -1.3 z M 419.5 453.7 c -2.5 10.2 -6.8 45.7 -8.4 69.3 l -0.6 9.5 l -33.7 0.3 l -33.8 0.2 l -0.6 -2.6 c -1.6 -6.4 2.4 -52.4 5.7 -64.7 c 0.6 -2.3 1.5 -6 2.1 -8.2 c 0.6 -2.2 1.2 -4.6 1.4 -5.3 c 0.3 -0.9 8 -1.2 34.5 -1.2 h 34.1 l -0.7 2.7 z m 140.4 0 c 1.8 4.5 5.7 74.2 4.3 78 c -0.3 1 -12 1.3 -54.1 1.3 c -29.5 0 -54.2 -0.4 -55 -0.9 c -1.1 -0.7 -1.2 -3.3 -0.8 -12.7 c 1.2 -24.7 4.1 -56.8 5.9 -64.2 l 1.1 -4.2 h 97.5 l 1.1 2.7 z m 107.6 -1.7 c 1.5 2.4 4.8 17 6.6 29.5 c 1.1 7.4 3.1 48.5 2.4 50.2 c -0.3 1 -7.9 1.3 -33.8 1.3 h -33.3 l -1.3 -15.3 c -2.3 -29.2 -5.3 -54.2 -7.7 -64 l -0.6 -2.7 h 33.5 c 21 0 33.8 0.4 34.2 1 z M 547.3 573.8 l 16.7 0.3 v 10.6 c 0 5.9 -0.4 13.2 -1 16.2 c -0.5 3.1 -1.4 10.5 -2 16.6 c -0.9 10.3 -1.8 16.6 -3.7 27.5 l -0.8 4.5 l -46.4 0.3 c -30.8 0.1 -46.8 -0.1 -47.6 -0.8 c -0.7 -0.6 -1.5 -3.6 -1.8 -6.8 c -0.3 -3.1 -1.3 -11.1 -2.1 -17.7 c -0.9 -6.6 -2 -20.1 -2.6 -29.9 c -0.5 -9.9 -1.2 -18.1 -1.5 -18.4 c -0.3 -0.3 0 -1.1 0.6 -1.9 c 1 -1.1 8 -1.3 38.3 -1.1 c 20.4 0.2 44.6 0.4 53.9 0.6 z m -135.9 10.9 c 0.6 13.7 2.2 31.8 3.5 40.3 c 0.6 3.6 1.3 7.8 1.5 9.5 c 0.3 1.6 1 5.4 1.5 8.4 c 0.6 3 0.8 5.8 0.5 6.3 c -0.3 0.4 -12.8 0.8 -27.8 0.8 h -27.4 l -4.1 -9.9 c -2.2 -5.5 -4.1 -10.7 -4.1 -11.5 c 0 -0.8 -0.4 -1.8 -1 -2.1 c -0.5 -0.3 -1 -1.7 -1 -3.1 c 0 -1.3 -0.4 -3.2 -0.9 -4.2 c -1.4 -2.7 -2.8 -8.1 -4.5 -16.7 c -2.9 -15.5 -3.6 -19.9 -3.6 -24.2 V 574 h 66.9 l 0.5 10.7 z m 264.2 -7.5 c -0.4 1.8 -0.9 5.3 -1.2 7.8 c -1.9 17.6 -8.4 42.6 -13.5 52.2 c -0.5 1 -0.9 2.3 -0.9 3 c 0 0.6 -0.9 3.1 -2.1 5.5 l -2.1 4.3 h -56 l 0.5 -3.8 c 0.3 -2 1.3 -8 2.1 -13.2 c 2.2 -13.1 3.7 -23.9 4.6 -34.5 c 0.4 -5 1.1 -12.5 1.5 -16.8 l 0.8 -7.7 h 67 l -0.7 3.2 z M 428.4 695.7 c 1 2.7 2.1 5.6 2.7 6.5 c 0.5 1 0.9 2.4 0.9 3.2 c 0 0.7 1.8 5.4 4 10.4 c 2.2 4.9 4 9.5 4 10.1 c 0 0.6 0.5 1.1 1 1.1 c 0.6 0 1 0.6 1 1.2 c 0 1.5 7.1 16.1 8.9 18.2 c 2.9 3.5 0.1 3.3 -7.4 -0.5 c -4.4 -2.2 -8.7 -4.7 -9.6 -5.5 c -0.8 -0.8 -1.9 -1.4 -2.3 -1.4 c -0.4 0 -1.2 -0.5 -1.9 -1 c -0.7 -0.6 -3.7 -2.9 -6.7 -5.1 c -3 -2.3 -7.2 -5.6 -9.2 -7.5 c -2 -1.9 -4.1 -3.4 -4.7 -3.4 c -0.5 0 -1.1 -0.4 -1.3 -0.9 c -0.1 -0.5 -3.4 -4.2 -7.3 -8.3 c -3.8 -4 -8.3 -9.1 -10 -11.2 c -1.6 -2.1 -3.8 -4.7 -4.7 -5.9 c -4 -4.5 -3.2 -4.7 19.6 -4.7 h 21.3 l 1.7 4.7 z m 119 -2 c -0.3 1.6 -0.9 3.7 -1.3 4.8 c -0.5 1.1 -1.4 4 -2 6.5 c -0.7 2.5 -1.6 5.8 -2 7.5 c -1.1 3.5 -6.7 19.1 -8 22 c -6.1 13.2 -8.9 18.8 -11.7 23.2 L 519 763 h -17.9 l -2.9 -3.6 c -1.6 -1.9 -3.8 -5.3 -4.8 -7.5 c -1.1 -2.1 -2.2 -3.9 -2.6 -3.9 c -0.5 0 -0.8 -0.5 -0.8 -1.1 c 0 -0.6 -1.3 -3.9 -2.9 -7.3 c -5.1 -10.9 -7.1 -15.8 -7.1 -17.7 c 0 -1.1 -0.4 -1.9 -0.8 -1.9 c -0.7 0 -1.8 -3.8 -3.8 -13 c -0.3 -1.4 -0.9 -3.4 -1.4 -4.5 c -0.5 -1.1 -1.1 -3.1 -1.3 -4.5 c -0.3 -1.4 -0.9 -3.5 -1.2 -4.8 l -0.7 -2.2 H 548 l -0.6 2.7 z m 87.6 -2.1 c 0 1.2 -2.4 5.1 -5.9 9.4 c -4.5 5.6 -22.3 24 -23.3 24 c -0.7 0 -3.6 2.3 -7.2 5.5 c -0.6 0.6 -3.6 2.8 -6.6 5 c -3 2.2 -5.7 4.2 -6 4.6 c -0.3 0.3 -1.5 0.9 -2.7 1.3 c -1.3 0.4 -2.3 1.2 -2.3 1.7 s -0.7 0.9 -1.5 0.9 s -1.5 0.4 -1.5 1 c 0 0.5 -0.9 1 -1.9 1 c -1.1 0 -2.1 0.3 -2.3 0.7 c -0.4 1 -6.9 4.5 -7.4 4 c -0.2 -0.2 0.8 -2 2.1 -4 c 1.4 -2 2.5 -4.1 2.5 -4.6 c 0 -0.6 0.5 -1.1 1 -1.1 c 0.6 0 1 -0.5 1 -1.1 c 0 -0.6 1.5 -4.3 3.4 -8.2 c 5.6 -12.1 7.5 -16.5 10.1 -24.2 c 0.9 -2.8 2 -5.9 2.5 -7 c 0.5 -1.1 1.4 -3.7 2 -5.8 l 1.2 -3.7 h 21.4 c 11.8 0 21.4 0.3 21.4 0.6 z" fill="#000000"/>
</svg>